<svg version="1.2" xmlns="http://www.w3.org/2000/svg" viewBox="0 0 1532 928" width="1532" height="928">
	<title>reshot-illustration-online-shop-for-smartphones-NGUZQV5RHJ-ai</title>
	<defs>
		<clipPath clipPathUnits="userSpaceOnUse" id="cp1">
			<path d="m1084.62 727.15c-2.55 4.64-6.5 5.89-10.43 5.19-1.77-0.32-3.53-1.06-5.12-2.08-1.56-0.99-2.98-2.26-4.09-3.65-2.65-3.3-3.68-7.33-1.45-10.47 0.66-0.92 1.24-2.11 1.66-3.38 0.42-1.25 0.68-2.54 0.72-3.73 0.03-0.96-0.39-2.23-0.79-3.42-0.4-1.23-0.79-2.38-0.81-3.49-0.03-2.19 0.97-3.65 4.34-3.71 0.98-0.01 2.61 0.13 4.02 0.94 1.06 0.61 1.98 1.56 2.43 3.03h0.01c0.34 1.1 0.73 1.66 1.2 1.81 0.63 0.21 1.63 0 2.99-0.47 1.25-0.44 2.7-0.78 4.11-0.5 1.61 0.32 3.01 1.33 3.82 3.62 0.23 0.66 0.37 1.28 0.5 1.89 0.3 1.37 0.58 2.64 2.88 2.47 1.25-0.08 3.03-0.04 4.57 0.45 1.32 0.41 2.48 1.16 3.11 2.4 1.1 2.14 0.64 3.29-0.81 4.03-0.71 0.36-1.54 0.41-2.52 0.47-0.86 0.04-1.9 0.1-2.77 0.43l-0.13 0.04c-1.05 0.4-2 0.84-3.06 1.83-1.19 1.13-2.56 3-4.38 6.3z"/>
		</clipPath>
		<linearGradient id="g1" x1="1048.2" y1="715.9" x2="1060.6" y2="695.7" gradientUnits="userSpaceOnUse">
			<stop offset="0" stop-color="#7a65ac"/>
			<stop offset="1" stop-color="#e9e0ee"/>
		</linearGradient>
		<clipPath clipPathUnits="userSpaceOnUse" id="cp2">
			<path d="m1044.69 729.9l1.58 0.38q2.1 0.5 4.04 1.37c3.66 1.65 6.82 4.24 8.81 7.51 2.04 3.33 2.87 7.32 1.83 11.67q-0.38 1.62-1.13 3.29l-0.48 1.08-1.18-0.06q-2.13-0.11-3.96-0.66c-3.91-1.17-6.75-3.71-8.56-6.94-1.76-3.14-2.52-6.94-2.34-10.72 0.09-1.81 0.4-3.62 0.92-5.35z"/>
		</clipPath>
		<linearGradient id="g2" x1="1042.5" y1="758.2" x2="1032.7" y2="740.2" gradientUnits="userSpaceOnUse">
			<stop offset="0" stop-color="#7a65ac"/>
			<stop offset="1" stop-color="#e9e0ee"/>
		</linearGradient>
		<clipPath clipPathUnits="userSpaceOnUse" id="cp3">
			<path d="m1072.86 758.87c-3.73 1-7.69 0.74-11.4-1.33q-1.74-0.96-3.38-2.47l-0.86-0.8 0.43-1.09q0.71-1.8 1.63-3.25c2.49-3.95 6.08-6.24 10.04-7.15 3.88-0.88 8.12-0.42 12.03 1.12q2.08 0.82 3.97 2.01l1.38 0.87-0.79 1.43c-0.92 1.65-2.05 3.2-3.34 4.59-2.68 2.89-6.07 5.09-9.71 6.07z"/>
		</clipPath>
		<linearGradient id="g3" x1="1054.7" y1="740.9" x2="1074.4" y2="730.7" gradientUnits="userSpaceOnUse">
			<stop offset="0" stop-color="#7a65ac"/>
			<stop offset="1" stop-color="#e9e0ee"/>
		</linearGradient>
		<clipPath clipPathUnits="userSpaceOnUse" id="cp4">
			<path d="m1066.01 794.7c-4.49 1.21-9.26 0.9-13.73-1.59q-2.1-1.16-4.08-2.98l-0.86-0.8 0.43-1.1q0.86-2.16 1.97-3.93c3.01-4.76 7.32-7.52 12.1-8.61 4.7-1.07 9.83-0.51 14.57 1.35q2.52 1 4.81 2.44l1.39 0.88-0.79 1.42c-1.12 2.01-2.49 3.89-4.05 5.57-3.25 3.51-7.36 6.17-11.76 7.35z"/>
		</clipPath>
		<linearGradient id="g4" x1="1044.3" y1="774.5" x2="1062.7" y2="759.8" gradientUnits="userSpaceOnUse">
			<stop offset="0" stop-color="#7a65ac"/>
			<stop offset="1" stop-color="#e9e0ee"/>
		</linearGradient>
		<clipPath clipPathUnits="userSpaceOnUse" id="cp5">
			<path d="m1031.42 759.92l1.58 0.38q2.54 0.61 4.89 1.67c4.45 1.99 8.26 5.13 10.68 9.08 2.45 4.01 3.45 8.81 2.2 14.05q-0.47 1.96-1.37 3.99l-0.48 1.07-1.18-0.05q-2.58-0.14-4.78-0.8c-4.7-1.41-8.12-4.47-10.29-8.35-2.13-3.8-3.06-8.4-2.83-12.98 0.11-2.19 0.48-4.38 1.11-6.49z"/>
		</clipPath>
		<linearGradient id="g5" x1="1028.6" y1="793.1" x2="1019.1" y2="769.4" gradientUnits="userSpaceOnUse">
			<stop offset="0" stop-color="#7a65ac"/>
			<stop offset="1" stop-color="#e9e0ee"/>
		</linearGradient>
		<clipPath clipPathUnits="userSpaceOnUse" id="cp6">
			<path d="m514.95 750.1c-0.62-0.59-1.19-0.84-1.8-1.08l-0.08-0.02c-0.51-0.19-1.12-0.23-1.63-0.26-0.58-0.03-1.06-0.06-1.49-0.27-0.85-0.44-1.12-1.11-0.47-2.37 0.37-0.73 1.06-1.17 1.83-1.42 0.91-0.28 1.96-0.31 2.69-0.26 1.35 0.1 1.52-0.65 1.7-1.45q0.1-0.54 0.29-1.12c0.48-1.34 1.3-1.94 2.25-2.13 0.83-0.16 1.68 0.04 2.42 0.3 0.8 0.27 1.39 0.4 1.76 0.28 0.28-0.1 0.5-0.43 0.71-1.07 0.27-0.87 0.81-1.43 1.43-1.79 0.83-0.47 1.79-0.56 2.37-0.55 1.98 0.03 2.57 0.9 2.55 2.19-0.01 0.65-0.24 1.33-0.48 2.05-0.23 0.7-0.48 1.45-0.46 2.01 0.03 0.7 0.18 1.46 0.42 2.2 0.26 0.75 0.6 1.44 0.98 1.99 1.31 1.84 0.71 4.22-0.85 6.16-0.66 0.82-1.49 1.56-2.41 2.15-0.94 0.6-1.97 1.04-3.02 1.22-2.3 0.42-4.63-0.32-6.13-3.05-1.07-1.94-1.88-3.04-2.58-3.71z"/>
		</clipPath>
		<linearGradient id="g6" x1="510.8" y1="764.4" x2="503.6" y2="752.5" gradientUnits="userSpaceOnUse">
			<stop offset="0" stop-color="#7a65ac"/>
			<stop offset="1" stop-color="#e9e0ee"/>
		</linearGradient>
		<clipPath clipPathUnits="userSpaceOnUse" id="cp7">
			<path d="m541.31 756.35q0.46 1.54 0.54 3.15c0.11 2.23-0.34 4.46-1.38 6.31-1.06 1.9-2.73 3.4-5.04 4.09q-1.07 0.32-2.33 0.38l-0.69 0.04-0.28-0.64q-0.44-0.98-0.67-1.93c-0.61-2.56-0.12-4.91 1.08-6.87 1.17-1.92 3.03-3.45 5.19-4.42q1.14-0.51 2.37-0.81l0.94-0.22z"/>
		</clipPath>
		<linearGradient id="g7" x1="524.7" y1="762.6" x2="530.5" y2="751.9" gradientUnits="userSpaceOnUse">
			<stop offset="0" stop-color="#7a65ac"/>
			<stop offset="1" stop-color="#e9e0ee"/>
		</linearGradient>
		<clipPath clipPathUnits="userSpaceOnUse" id="cp8">
			<path d="m518.73 768.91q-1.14-1.24-1.96-2.7l-0.47-0.85 0.82-0.51q1.11-0.7 2.33-1.18c2.3-0.91 4.8-1.18 7.08-0.66 2.34 0.53 4.45 1.88 5.91 4.21q0.55 0.85 0.96 1.91l0.26 0.64-0.51 0.47q-0.96 0.89-1.99 1.46c-2.19 1.21-4.52 1.37-6.71 0.78-2.14-0.58-4.14-1.87-5.72-3.57z"/>
		</clipPath>
		<linearGradient id="g8" x1="525.6" y1="780.2" x2="514" y2="774.1" gradientUnits="userSpaceOnUse">
			<stop offset="0" stop-color="#7a65ac"/>
			<stop offset="1" stop-color="#e9e0ee"/>
		</linearGradient>
		<clipPath clipPathUnits="userSpaceOnUse" id="cp9">
			<path d="m521.56 789.25q-1.39-1.5-2.38-3.28l-0.47-0.84 0.82-0.52q1.35-0.85 2.83-1.43c2.79-1.1 5.81-1.43 8.57-0.8 2.82 0.64 5.36 2.27 7.13 5.07q0.66 1.04 1.16 2.32l0.26 0.64-0.51 0.47q-1.17 1.07-2.4 1.76c-2.64 1.46-5.44 1.65-8.09 0.93-2.59-0.69-5-2.26-6.92-4.32z"/>
		</clipPath>
		<linearGradient id="g9" x1="525.1" y1="801.9" x2="514.3" y2="793.3" gradientUnits="userSpaceOnUse">
			<stop offset="0" stop-color="#7a65ac"/>
			<stop offset="1" stop-color="#e9e0ee"/>
		</linearGradient>
		<clipPath clipPathUnits="userSpaceOnUse" id="cp10">
			<path d="m549.12 774.02q0.56 1.87 0.65 3.83c0.14 2.69-0.41 5.39-1.66 7.63-1.28 2.29-3.29 4.09-6.06 4.92q-1.3 0.39-2.81 0.47l-0.7 0.03-0.28-0.63q-0.53-1.19-0.81-2.35c-0.73-3.08-0.14-5.91 1.3-8.27 1.42-2.32 3.67-4.17 6.28-5.35q1.39-0.62 2.88-0.98l0.94-0.22z"/>
		</clipPath>
		<linearGradient id="g10" x1="530" y1="784.4" x2="535.6" y2="770.4" gradientUnits="userSpaceOnUse">
			<stop offset="0" stop-color="#7a65ac"/>
			<stop offset="1" stop-color="#e9e0ee"/>
		</linearGradient>
		<clipPath clipPathUnits="userSpaceOnUse" id="cp11">
			<path d="m798.61 708.5l-8.3 34.37h-19.61l-6.54-15.61-6.54 15.61h-19.61l-8.3-34.37c9.23-1.33 13.77-13.96 13.77-23.15 0-9.19-2.06-12.22-5.4-16.44l12.93-2.63c0.09 7.95 5.03 18.72 13.15 18.94 8.12-0.22 13.06-10.99 13.15-18.94l12.93 2.63c-3.34 4.22-5.4 7.25-5.4 16.44 0 9.19 4.54 21.82 13.77 23.15z"/>
		</clipPath>
		<linearGradient id="g11" x1="724.7" y1="722.1" x2="727.4" y2="672.4" gradientUnits="userSpaceOnUse">
			<stop offset="0" stop-color="#2e90ce"/>
			<stop offset="1" stop-color="#3fa2d9"/>
		</linearGradient>
		<clipPath clipPathUnits="userSpaceOnUse" id="cp12">
			<path d="m775.13 312.37l11.23 3.39c-3.03 2.94-4.91 7.05-4.91 11.6 0 2.83 0.72 5.48 1.99 7.79l-4.94 14.58 19.11 47.79h-66.9l19.11-47.79-4.95-14.58c1.28-2.31 2-4.96 2-7.79 0-4.56-1.89-8.67-4.92-11.61l10.74-3.38 11.22 13.12z"/>
		</clipPath>
		<linearGradient id="g12" x1="727.8" y1="362.9" x2="728.6" y2="320.6" gradientUnits="userSpaceOnUse">
			<stop offset="0" stop-color="#ee344d"/>
			<stop offset="1" stop-color="#ef5069"/>
		</linearGradient>
		<clipPath clipPathUnits="userSpaceOnUse" id="cp13">
			<path d="m892.97 493.94h68.55l10.14 68.71h-35.73l-3.12-10.3-5.57-18.42-5.57 18.42-3.11 10.3h-35.74z"/>
		</clipPath>
		<linearGradient id="g13" x1="882.6" y1="569" x2="870" y2="526.6" gradientUnits="userSpaceOnUse">
			<stop offset="0" stop-color="#f27120"/>
			<stop offset="1" stop-color="#f89f19"/>
		</linearGradient>
		<clipPath clipPathUnits="userSpaceOnUse" id="cp14">
			<path d="m895.15 316.63c23.1 3.13 23.1 58.7 48.04 51.34 15.12 1.76 29.28 18.39 25.89 25.29h-37.34c-11.18-5-20.19-47.25-32.38-44.28l-2.74 44.28h-5.18l-2.58-44.28c-8.54-12.31-1.8-27.86 6.29-32.35z"/>
		</clipPath>
		<linearGradient id="g14" x1="853.4" y1="354.6" x2="875.1" y2="321" gradientUnits="userSpaceOnUse">
			<stop offset="0" stop-color="#ec1d24"/>
			<stop offset="1" stop-color="#ee344d"/>
		</linearGradient>
		<clipPath clipPathUnits="userSpaceOnUse" id="cp15">
			<path d="m764.16 494.48c6.03 0 11.08-4.23 12.34-9.88l13.75 3.85 20.66 19.65-10.33 16.71-10.33-8.84v56.02h-52.18v-56.02l-10.33 8.84-10.33-16.71 20.66-19.65 13.75-3.85c1.26 5.65 6.31 9.88 12.34 9.88z"/>
		</clipPath>
		<linearGradient id="g15" x1="714.5" y1="554.3" x2="715.1" y2="505.3" gradientUnits="userSpaceOnUse">
			<stop offset="0" stop-color="#2e90ce"/>
			<stop offset="1" stop-color="#3fa2d9"/>
		</linearGradient>
		<clipPath clipPathUnits="userSpaceOnUse" id="cp16">
			<path d="m1099.22 541.46h-92.04l7.69-88.1h75.56z"/>
		</clipPath>
		<linearGradient id="g16" x1="1005.9" y1="544.1" x2="988.1" y2="483.3" gradientUnits="userSpaceOnUse">
			<stop offset="0" stop-color="#2e7dc1"/>
			<stop offset="1" stop-color="#3fa2d9"/>
		</linearGradient>
		<clipPath clipPathUnits="userSpaceOnUse" id="cp17">
			<path d="m1017.93 531.13l12.64 10.33h-23.39z"/>
		</clipPath>
		<linearGradient id="g17" x1="1011" y1="547.9" x2="1004.5" y2="541.7" gradientUnits="userSpaceOnUse">
			<stop offset="0" stop-color="#2e7dc1"/>
			<stop offset="1" stop-color="#3fa2d9"/>
		</linearGradient>
		<clipPath clipPathUnits="userSpaceOnUse" id="cp18">
			<path d="m1017.93 531.13l1.1-77.77h6.04l5.5 88.1z"/>
		</clipPath>
		<linearGradient id="g18" x1="1019.7" y1="451.3" x2="1028" y2="451.1" gradientUnits="userSpaceOnUse">
			<stop offset="0" stop-color="#2e7dc1"/>
			<stop offset="1" stop-color="#3fa2d9"/>
		</linearGradient>
		<clipPath clipPathUnits="userSpaceOnUse" id="cp19">
			<path d="m1019.03 453.36l-1.1 77.77-10.75 10.33 7.69-88.1z"/>
		</clipPath>
		<linearGradient id="g19" x1="1007.1" y1="451.4" x2="1020.3" y2="450.9" gradientUnits="userSpaceOnUse">
			<stop offset="0" stop-color="#2e7dc1"/>
			<stop offset="1" stop-color="#3fa2d9"/>
		</linearGradient>
		<clipPath clipPathUnits="userSpaceOnUse" id="cp20">
			<path d="m1075.94 465.12c-1.37 0.79-3.12 0.32-3.91-1.05-0.8-1.37-0.33-3.12 1.04-3.91 1.37-0.79 3.13-0.32 3.92 1.05 0.79 1.37 0.32 3.12-1.05 3.91z"/>
		</clipPath>
		<linearGradient id="g20" x1="1070.3" y1="468.4" x2="1067.5" y2="463.4" gradientUnits="userSpaceOnUse">
			<stop offset="0" stop-color="#16153f"/>
			<stop offset="1" stop-color="#2a2868"/>
		</linearGradient>
		<clipPath clipPathUnits="userSpaceOnUse" id="cp21">
			<path d="m1045.22 465.12c-1.37 0.79-3.12 0.32-3.92-1.05-0.79-1.37-0.32-3.12 1.05-3.91 1.37-0.79 3.13-0.32 3.92 1.05 0.79 1.37 0.32 3.12-1.05 3.91z"/>
		</clipPath>
		<linearGradient id="g21" x1="1039.6" y1="468.4" x2="1036.7" y2="463.4" gradientUnits="userSpaceOnUse">
			<stop offset="0" stop-color="#16153f"/>
			<stop offset="1" stop-color="#2a2868"/>
		</linearGradient>
		<clipPath clipPathUnits="userSpaceOnUse" id="cp22">
			<path d="m1093.91 493.24c18.5 14.63 22.26 32.78 30.06 38.96 7.99 6.33 3.69 10.65-5.91 18.61-16.05 0.38-25.85-38.11-32.32-45.61-21.23-21.11-19.92-40.29-26.84-51.38-8.56-3.98-9.25-10.68-9.25-10.68-2.89 2.04-4.77-2.14-4.77-2.14-4.05-7.1 7.67-21.43 12.64-18.68l2.37 1.66 1.36-0.49c8.01-2.86 4.75 16.72 11.31 24.64 4.67 11.49 16.05 26.71 21.35 45.11z"/>
		</clipPath>
		<linearGradient id="g22" x1="1108.8" y1="555.9" x2="1058.5" y2="553.9" gradientUnits="userSpaceOnUse">
			<stop offset="0" stop-color="#fab055"/>
			<stop offset="1" stop-color="#fbdeb7"/>
		</linearGradient>
		<clipPath clipPathUnits="userSpaceOnUse" id="cp23">
			<path d="m1108.52 548.71c-8.6-9.53-15.51-24.12-19.83-34.7-5.84-6.39-25.07-39.2-28.2-49.99 3.02-3.99 11.15-8.9 16.14-8.39 4 5.96 16.28 21.26 30.64 49.46 4.35 3.94 14.03 15.88 15.86 20.06 8.4 5.68 12.97 11.26 14.08 20.48 1.42 11.81-18.11 15.79-28.69 3.08z"/>
		</clipPath>
		<linearGradient id="g23" x1="1034.5" y1="488" x2="1063.5" y2="447.5" gradientUnits="userSpaceOnUse">
			<stop offset="0" stop-color="#ed2131"/>
			<stop offset=".6" stop-color="#ee344d"/>
			<stop offset="1" stop-color="#ef5069"/>
		</linearGradient>
		<clipPath clipPathUnits="userSpaceOnUse" id="cp24">
			<path d="m1115.01 754c-5.33-50.34-7.77-96.53-3.83-117.33l56.01-0.11-13.79 67.19c-1.11 2.14-12.79 39.59-9.15 53.06 7.82 28.97-5.52 49.83 5.13 82.65 1.63 5.02-23.37 1.88-23.37 1.88 0.13-33-8.23-61.24-11-87.34z"/>
		</clipPath>
		<linearGradient id="g24" x1="1145.2" y1="852.4" x2="1066.2" y2="840.1" gradientUnits="userSpaceOnUse">
			<stop offset="0" stop-color="#453a97"/>
			<stop offset="1" stop-color="#6553a3"/>
		</linearGradient>
		<clipPath clipPathUnits="userSpaceOnUse" id="cp25">
			<path d="m1179.43 626.67c23.23 31.49 0.43 58.26 14.86 117.03 0.75 3.07 1.96 10.29 3.34 7.26 7.91-17.27 58.61-46.19 72.54-52.66-0.33 4.22 0.19 13.72 1.26 20.73-43.36 24.27-71.82 114.55-103.95 40.12-7.31-16.94-10.72-37.13-17.12-55.4-4.88-13.96-3.99-24.77-14.48-36.19-7.11-7.74-14.52-19.69-18.86-33.8z"/>
		</clipPath>
		<linearGradient id="g25" x1="1273.2" y1="835.1" x2="1159" y2="873.8" gradientUnits="userSpaceOnUse">
			<stop offset="0" stop-color="#453a97"/>
			<stop offset="1" stop-color="#6553a3"/>
		</linearGradient>
		<clipPath clipPathUnits="userSpaceOnUse" id="cp26">
			<path d="m1161.54 519.55c3.54-1.35 21.63 12.03 25.05 18.19 0.51 17.3-8.73 50.22-5.37 81.18 1.35 12.42 6.56 14.15 0.34 22.82-6.94 9.68-30.41 5.59-30.41 5.59-10.17-0.92-29.28-0.36-38.79-5.47-7.68-13.51 0.7-22.91 1.84-27.46 2.18-15.67 0.5-25.13-4.2-35.14-15.24-32.43 17.49-47.11 22.5-57.37z"/>
		</clipPath>
		<linearGradient id="g26" x1="1130.3" y1="684.4" x2="1063.4" y2="627.2" gradientUnits="userSpaceOnUse">
			<stop offset="0" stop-color="#ed2131"/>
			<stop offset=".6" stop-color="#ee344d"/>
			<stop offset="1" stop-color="#ef5069"/>
		</linearGradient>
		<clipPath clipPathUnits="userSpaceOnUse" id="cp27">
			<path d="m1155.56 500.17c-1.35 10.02 1.91 18.79 1.91 18.79 0.8 1.64 3.45 1.52 3.45 1.52 1.26 7.93-13.56 19.52-19.66 20.54-11.42 1.74-14.46-6.51-14.46-6.51 3.24-6.2-2.29-11.69-2.29-11.69z"/>
		</clipPath>
		<linearGradient id="g27" x1="1170.9" y1="508.7" x2="1176" y2="515.7" gradientUnits="userSpaceOnUse">
			<stop offset="0" stop-color="#fabe74"/>
			<stop offset="1" stop-color="#fbe4c0"/>
		</linearGradient>
		<clipPath clipPathUnits="userSpaceOnUse" id="cp28">
			<path d="m1208.29 494.42c-1.09 23.11-20.56 37.57-21.7 46.62-1.16 9.27-9.17 9.19-19.99 5.46-7.93-12.42 26.97-48.36 29.78-57.01 6.45-26.7 21.75-36.02 27.15-46.73-0.95-8.61 3.98-12.34 3.98-12.34-2.98-1.3-0.59-4.76-0.59-4.76 3.64-6.56 20.46-4.18 20.67 1.02l-0.17 2.65 1.03 0.84c6.05 4.92-10.86 11.69-13.95 20.6-6.78 9.13-14.3 30.73-26.21 43.65z"/>
		</clipPath>
		<linearGradient id="g28" x1="1153.6" y1="545.8" x2="1129.1" y2="505.6" gradientUnits="userSpaceOnUse">
			<stop offset="0" stop-color="#fab055"/>
			<stop offset="1" stop-color="#fbdeb7"/>
		</linearGradient>
		<clipPath clipPathUnits="userSpaceOnUse" id="cp29">
			<path d="m1160.52 544.14c0.46-9.27 3.99-17.09 11.97-23.34 1.53-4.3 10.87-14.83 14.94-19.06 12.33-29.15 23.6-45.41 27.17-51.64 4.95-0.87 13.4 3.47 16.7 7.22-2.37 10.99-19.24 45.08-24.61 51.86-3.56 10.85-11.4 26.89-19.3 37-9.66 13.43-27.45 9.85-26.87-2.04z"/>
		</clipPath>
		<linearGradient id="g29" x1="1162" y1="565.3" x2="1127.4" y2="523" gradientUnits="userSpaceOnUse">
			<stop offset="0" stop-color="#ed2131"/>
			<stop offset=".6" stop-color="#ee344d"/>
			<stop offset="1" stop-color="#ef5069"/>
		</linearGradient>
		<clipPath clipPathUnits="userSpaceOnUse" id="cp30">
			<path d="m1119.92 466.85c3.74-9.84 23.89-5.6 23.89-5.6 17.66 0.83 22.63 20.44 22.63 20.44 3.25 8.45-11.77 29.02-11.77 29.02-2.79 4.46-8.3 8.61-8.3 8.61-13.19 8-19.5 7.55-21.57 6.84-3.92-1.34-10.88-11.88-10.13-16.55-0.69-6.42 0.98-18.07 0.98-18.07-0.64-7.72-2.78-15.66 4.27-24.69z"/>
		</clipPath>
		<linearGradient id="g30" x1="1113" y1="533.4" x2="1101.9" y2="503.8" gradientUnits="userSpaceOnUse">
			<stop offset="0" stop-color="#facb8e"/>
			<stop offset="1" stop-color="#fdf2dc"/>
		</linearGradient>
		<clipPath clipPathUnits="userSpaceOnUse" id="cp31">
			<path d="m1143.19 532.92c0 0 13.05-22.03 14.39-38.32-8.27 1.96-33.18-11.9-33.49-24.08 0 0-10.46 8.93-11.21 52.8 0 0-13.12-0.01-14.81-13.14 1.71-22.53 16.56-67.52 43.84-64.72 23.16 2.37 31.7 15.75 33.49 33.93 2.63 26.82-5.71 62.83-32.21 53.53z"/>
		</clipPath>
		<linearGradient id="g31" x1="1072.8" y1="483.4" x2="1110.5" y2="416.6" gradientUnits="userSpaceOnUse">
			<stop offset="0" stop-color="#16153f"/>
			<stop offset="1" stop-color="#2a2868"/>
		</linearGradient>
		<clipPath clipPathUnits="userSpaceOnUse" id="cp32">
			<path d="m1286.26 536.54h-91.79l7.67-87.86h75.35z"/>
		</clipPath>
		<linearGradient id="g32" x1="1193.2" y1="539.2" x2="1175.5" y2="478.6" gradientUnits="userSpaceOnUse">
			<stop offset="0" stop-color="#f27120"/>
			<stop offset="1" stop-color="#f89f19"/>
		</linearGradient>
		<clipPath clipPathUnits="userSpaceOnUse" id="cp33">
			<path d="m1205.19 526.25l12.6 10.29h-23.32z"/>
		</clipPath>
		<linearGradient id="g33" x1="1198.3" y1="542.9" x2="1191.8" y2="536.8" gradientUnits="userSpaceOnUse">
			<stop offset="0" stop-color="#f27120"/>
			<stop offset="1" stop-color="#f89f19"/>
		</linearGradient>
		<clipPath clipPathUnits="userSpaceOnUse" id="cp34">
			<path d="m1205.19 526.25l1.09-77.57h6.03l5.48 87.86z"/>
		</clipPath>
		<linearGradient id="g34" x1="1206.9" y1="446.6" x2="1215.3" y2="446.4" gradientUnits="userSpaceOnUse">
			<stop offset="0" stop-color="#f27120"/>
			<stop offset="1" stop-color="#f89f19"/>
		</linearGradient>
		<clipPath clipPathUnits="userSpaceOnUse" id="cp35">
			<path d="m1206.28 448.68l-1.09 77.57-10.72 10.29 7.67-87.86z"/>
		</clipPath>
		<linearGradient id="g35" x1="1194.4" y1="446.7" x2="1207.6" y2="446.2" gradientUnits="userSpaceOnUse">
			<stop offset="0" stop-color="#f27120"/>
			<stop offset="1" stop-color="#f89f19"/>
		</linearGradient>
		<clipPath clipPathUnits="userSpaceOnUse" id="cp36">
			<path d="m1262.92 460.21c-1.37 0.79-3.12 0.32-3.91-1.04-0.78-1.37-0.32-3.12 1.05-3.91 1.37-0.79 3.11-0.32 3.9 1.05 0.79 1.37 0.32 3.11-1.04 3.9z"/>
		</clipPath>
		<linearGradient id="g36" x1="1257.3" y1="463.4" x2="1254.5" y2="458.5" gradientUnits="userSpaceOnUse">
			<stop offset="0" stop-color="#1c2129"/>
			<stop offset="1" stop-color="#b8d9f2"/>
		</linearGradient>
		<clipPath clipPathUnits="userSpaceOnUse" id="cp37">
			<path d="m1232.28 460.21c-1.37 0.79-3.12 0.32-3.9-1.04-0.79-1.37-0.33-3.12 1.04-3.91 1.37-0.79 3.11-0.32 3.9 1.05 0.79 1.37 0.32 3.11-1.04 3.9z"/>
		</clipPath>
		<linearGradient id="g37" x1="1226.7" y1="463.4" x2="1223.8" y2="458.5" gradientUnits="userSpaceOnUse">
			<stop offset="0" stop-color="#1c2129"/>
			<stop offset="1" stop-color="#b8d9f2"/>
		</linearGradient>
		<clipPath clipPathUnits="userSpaceOnUse" id="cp38">
			<path d="m1263.04 460.41c-1.37 0.79-3.12 0.32-3.9-1.05-0.79-1.36-0.32-3.11 1.04-3.9 1.37-0.79 3.12-0.32 3.9 1.05 0.79 1.36 0.33 3.11-1.04 3.9z"/>
		</clipPath>
		<linearGradient id="g38" x1="1257.4" y1="463.6" x2="1254.6" y2="458.7" gradientUnits="userSpaceOnUse">
			<stop offset="0" stop-color="#1c2129"/>
			<stop offset="1" stop-color="#373f4b"/>
		</linearGradient>
		<clipPath clipPathUnits="userSpaceOnUse" id="cp39">
			<path d="m1232.4 460.41c-1.37 0.79-3.11 0.32-3.9-1.05-0.79-1.36-0.32-3.11 1.04-3.9 1.37-0.79 3.12-0.32 3.91 1.05 0.78 1.36 0.32 3.11-1.05 3.9z"/>
		</clipPath>
		<linearGradient id="g39" x1="1226.8" y1="463.6" x2="1224" y2="458.7" gradientUnits="userSpaceOnUse">
			<stop offset="0" stop-color="#1c2129"/>
			<stop offset="1" stop-color="#373f4b"/>
		</linearGradient>
		<clipPath clipPathUnits="userSpaceOnUse" id="cp40">
			<path d="m426.92 464.53c-3.26-2.18-11.01 1.78-10.79 16.49-5.45 5.37 0.27 14.99-13.24 20.74-15.29 13.59 7.19 32.83-3 39.78-8.53 5.82-11.2 14.25-11.93 22.3-1.38 15.26-9.01 23.2-22.64 14.69-23.01-14.37-14.29 11.29-30.39 5.91-20.49-6.85-1.15-29.75-10.29-31.73-23.48-5.1-2.59-15-6.07-25.49-10.24-30.83 18.05-21.14 17.91-39.04-0.21-27.17 32.61 3.52 32.48-29.18-0.06-17.23 10-30.51 25.12-31.76 17.34-1.43 35.97 6.66 32.84 37.29z"/>
		</clipPath>
		<linearGradient id="g40" x1="292.5" y1="579.3" x2="252.7" y2="513.2" gradientUnits="userSpaceOnUse">
			<stop offset="0" stop-color="#16153f"/>
			<stop offset="1" stop-color="#312e7d"/>
		</linearGradient>
		<clipPath clipPathUnits="userSpaceOnUse" id="cp41">
			<path d="m428.52 639.21l-14.53 106.23c-8.56 20.93-38.4 56.24-55.04 91.67-9 0.56-18.48-1.77-22.03-4.51 22.41-31.14 28.58-77.26 49.05-91.26 7.25-27.02-23.43-94.67-3.26-111.51z"/>
		</clipPath>
		<linearGradient id="g41" x1="381.2" y1="851.3" x2="320.9" y2="835.6" gradientUnits="userSpaceOnUse">
			<stop offset="0" stop-color="#2e7dc1"/>
			<stop offset="1" stop-color="#4ca9dd"/>
		</linearGradient>
		<clipPath clipPathUnits="userSpaceOnUse" id="cp42">
			<path d="m464.28 839.88c0 0-26.78 6.48-25.46 1.75 7.5-26.75-18.77-67.88-9.37-100.49 2.99-10.38-15.13-41.16-28.72-61.96-8.35-12.78-17.04-26.73-7.09-48.66l45.28 11.38c10.82 19.47 18.15 69.95 17.09 98.48-0.52 13.96 2.23 65.47 8.27 99.5z"/>
		</clipPath>
		<linearGradient id="g42" x1="433.4" y1="862.1" x2="313.2" y2="829.1" gradientUnits="userSpaceOnUse">
			<stop offset="0" stop-color="#2e7dc1"/>
			<stop offset="1" stop-color="#4ca9dd"/>
		</linearGradient>
		<clipPath clipPathUnits="userSpaceOnUse" id="cp43">
			<path d="m614.51 661.64h96.69l9.84 112.73h-117.78z"/>
		</clipPath>
		<linearGradient id="g43" x1="579.5" y1="735.9" x2="602.2" y2="658.2" gradientUnits="userSpaceOnUse">
			<stop offset="0" stop-color="#2e7dc1"/>
			<stop offset="1" stop-color="#3fa2d9"/>
		</linearGradient>
		<clipPath clipPathUnits="userSpaceOnUse" id="cp44">
			<path d="m721.04 774.37h-29.92l16.17-13.21z"/>
		</clipPath>
		<linearGradient id="g44" x1="692.3" y1="757.3" x2="700.6" y2="749.4" gradientUnits="userSpaceOnUse">
			<stop offset="0" stop-color="#2e7dc1"/>
			<stop offset="1" stop-color="#3fa2d9"/>
		</linearGradient>
		<clipPath clipPathUnits="userSpaceOnUse" id="cp45">
			<path d="m691.12 774.37l7.03-112.73h7.73l1.41 99.52z"/>
		</clipPath>
		<linearGradient id="g45" x1="702" y1="776.7" x2="691.3" y2="776.4" gradientUnits="userSpaceOnUse">
			<stop offset="0" stop-color="#2e7dc1"/>
			<stop offset="1" stop-color="#3fa2d9"/>
		</linearGradient>
		<clipPath clipPathUnits="userSpaceOnUse" id="cp46">
			<path d="m711.2 661.64l9.84 112.73-13.75-13.21-1.41-99.52z"/>
		</clipPath>
		<linearGradient id="g46" x1="717.2" y1="776.8" x2="700.3" y2="776.2" gradientUnits="userSpaceOnUse">
			<stop offset="0" stop-color="#2e7dc1"/>
			<stop offset="1" stop-color="#3fa2d9"/>
		</linearGradient>
		<clipPath clipPathUnits="userSpaceOnUse" id="cp47">
			<path d="m631.71 671.68c1.02-1.75 3.26-2.35 5.01-1.34 1.76 1.01 2.36 3.25 1.34 5.01-1.01 1.75-3.25 2.35-5 1.34-1.76-1.01-2.36-3.26-1.35-5.01z"/>
		</clipPath>
		<linearGradient id="g47" x1="626.4" y1="672.8" x2="630" y2="666.5" gradientUnits="userSpaceOnUse">
			<stop offset="0" stop-color="#16153f"/>
			<stop offset="1" stop-color="#2a2868"/>
		</linearGradient>
		<clipPath clipPathUnits="userSpaceOnUse" id="cp48">
			<path d="m671.03 671.68c1.01-1.75 3.25-2.35 5.01-1.34 1.75 1.01 2.35 3.25 1.34 5.01-1.01 1.75-3.26 2.35-5.01 1.34-1.75-1.01-2.35-3.26-1.34-5.01z"/>
		</clipPath>
		<linearGradient id="g48" x1="665.7" y1="672.8" x2="669.4" y2="666.5" gradientUnits="userSpaceOnUse">
			<stop offset="0" stop-color="#16153f"/>
			<stop offset="1" stop-color="#2a2868"/>
		</linearGradient>
		<clipPath clipPathUnits="userSpaceOnUse" id="cp49">
			<path d="m567.81 691.49h72.58l7.38 84.62h-88.4z"/>
		</clipPath>
		<linearGradient id="g49" x1="541.1" y1="747.1" x2="558.1" y2="688.8" gradientUnits="userSpaceOnUse">
			<stop offset="0" stop-color="#f27120"/>
			<stop offset="1" stop-color="#f89f19"/>
		</linearGradient>
		<clipPath clipPathUnits="userSpaceOnUse" id="cp50">
			<path d="m647.77 776.11h-22.46l12.14-9.91z"/>
		</clipPath>
		<linearGradient id="g50" x1="625.8" y1="763" x2="632.1" y2="757" gradientUnits="userSpaceOnUse">
			<stop offset="0" stop-color="#f27120"/>
			<stop offset="1" stop-color="#f89f19"/>
		</linearGradient>
		<clipPath clipPathUnits="userSpaceOnUse" id="cp51">
			<path d="m625.31 776.11l5.28-84.62h5.8l1.06 74.71z"/>
		</clipPath>
		<linearGradient id="g51" x1="633.4" y1="778.3" x2="625.4" y2="778.1" gradientUnits="userSpaceOnUse">
			<stop offset="0" stop-color="#f27120"/>
			<stop offset="1" stop-color="#f89f19"/>
		</linearGradient>
		<clipPath clipPathUnits="userSpaceOnUse" id="cp52">
			<path d="m640.39 691.49l7.38 84.62-10.32-9.91-1.06-74.71z"/>
		</clipPath>
		<linearGradient id="g52" x1="644.9" y1="778.4" x2="632.2" y2="778" gradientUnits="userSpaceOnUse">
			<stop offset="0" stop-color="#f27120"/>
			<stop offset="1" stop-color="#f89f19"/>
		</linearGradient>
		<clipPath clipPathUnits="userSpaceOnUse" id="cp53">
			<path d="m578.92 702.58c0.9-1.57 2.91-2.1 4.48-1.2 1.57 0.91 2.1 2.91 1.2 4.48-0.91 1.57-2.91 2.11-4.48 1.2-1.57-0.9-2.11-2.91-1.2-4.48z"/>
		</clipPath>
		<linearGradient id="g53" x1="574" y1="703.5" x2="577.2" y2="697.8" gradientUnits="userSpaceOnUse">
			<stop offset="0" stop-color="#16153f"/>
			<stop offset="1" stop-color="#2a2868"/>
		</linearGradient>
		<clipPath clipPathUnits="userSpaceOnUse" id="cp54">
			<path d="m614.1 702.58c0.91-1.57 2.91-2.1 4.48-1.2 1.57 0.91 2.11 2.91 1.21 4.48-0.91 1.57-2.92 2.11-4.49 1.2-1.57-0.9-2.1-2.91-1.2-4.48z"/>
		</clipPath>
		<linearGradient id="g54" x1="609.1" y1="703.5" x2="612.4" y2="697.8" gradientUnits="userSpaceOnUse">
			<stop offset="0" stop-color="#16153f"/>
			<stop offset="1" stop-color="#2a2868"/>
		</linearGradient>
		<clipPath clipPathUnits="userSpaceOnUse" id="cp55">
			<path d="m691.06 871.44c-9.36 5.4-21.33 2.2-26.73-7.16-5.41-9.36-2.2-21.33 7.16-26.73 9.36-5.41 21.33-2.2 26.73 7.16 5.41 9.36 2.2 21.33-7.16 26.73z"/>
		</clipPath>
		<linearGradient id="g55" x1="662.9" y1="887.7" x2="643.3" y2="853.8" gradientUnits="userSpaceOnUse">
			<stop offset="0" stop-color="#1a2029"/>
			<stop offset="1" stop-color="#373f4b"/>
		</linearGradient>
		<clipPath clipPathUnits="userSpaceOnUse" id="cp56">
			<path d="m688.1 866.31c-6.52 3.76-14.88 1.52-18.64-5-3.76-6.51-1.52-14.87 4.99-18.63 6.52-3.76 14.88-1.52 18.64 4.99 3.76 6.52 1.52 14.88-4.99 18.64z"/>
		</clipPath>
		<linearGradient id="g56" x1="667.9" y1="877.9" x2="654.3" y2="854.3" gradientUnits="userSpaceOnUse">
			<stop offset="0" stop-color="#47515d"/>
			<stop offset="1" stop-color="#1a2029"/>
		</linearGradient>
		<clipPath clipPathUnits="userSpaceOnUse" id="cp57">
			<path d="m687.8 865.79c-6.24 3.6-14.22 1.46-17.82-4.78-3.6-6.23-1.47-14.21 4.77-17.81 6.24-3.61 14.22-1.47 17.82 4.77 3.6 6.24 1.47 14.22-4.77 17.82z"/>
		</clipPath>
		<linearGradient id="g57" x1="668.4" y1="877" x2="655.4" y2="854.4" gradientUnits="userSpaceOnUse">
			<stop offset="0" stop-color="#b5c7da"/>
			<stop offset="1" stop-color="#667481"/>
		</linearGradient>
		<clipPath clipPathUnits="userSpaceOnUse" id="cp58">
			<path d="m695.16 830.21l-7.71 23.69c-1.05 3.23-2.78 6.17-6.17 6.17-3.4 0-5.13-2.95-6.18-6.17l-7.71-23.69z"/>
		</clipPath>
		<linearGradient id="g58" x1="655.3" y1="840.1" x2="668.6" y2="826" gradientUnits="userSpaceOnUse">
			<stop offset="0" stop-color="#312e7d"/>
			<stop offset="1" stop-color="#16153f"/>
		</linearGradient>
		<clipPath clipPathUnits="userSpaceOnUse" id="cp59">
			<path d="m683.17 857.78c-1.81 1.05-4.13 0.43-5.18-1.39-1.05-1.82-0.43-4.14 1.39-5.19 1.81-1.04 4.14-0.42 5.18 1.39 1.05 1.82 0.43 4.14-1.39 5.19z"/>
		</clipPath>
		<linearGradient id="g59" x1="676.3" y1="861.7" x2="672.5" y2="855.2" gradientUnits="userSpaceOnUse">
			<stop offset="0" stop-color="#1a2029"/>
			<stop offset="1" stop-color="#373f4b"/>
		</linearGradient>
		<clipPath clipPathUnits="userSpaceOnUse" id="cp60">
			<path d="m567.72 871.44c-9.36 5.4-21.33 2.2-26.73-7.16-5.41-9.36-2.2-21.33 7.16-26.73 9.36-5.41 21.33-2.2 26.73 7.16 5.4 9.36 2.2 21.33-7.16 26.73z"/>
		</clipPath>
		<linearGradient id="g60" x1="539.5" y1="887.7" x2="520" y2="853.8" gradientUnits="userSpaceOnUse">
			<stop offset="0" stop-color="#1a2029"/>
			<stop offset="1" stop-color="#373f4b"/>
		</linearGradient>
		<clipPath clipPathUnits="userSpaceOnUse" id="cp61">
			<path d="m564.75 866.31c-6.51 3.76-14.87 1.52-18.63-5-3.76-6.51-1.52-14.87 4.99-18.63 6.52-3.76 14.88-1.52 18.64 4.99 3.76 6.52 1.52 14.88-5 18.64z"/>
		</clipPath>
		<linearGradient id="g61" x1="544.6" y1="877.9" x2="531" y2="854.3" gradientUnits="userSpaceOnUse">
			<stop offset="0" stop-color="#47515d"/>
			<stop offset="1" stop-color="#1a2029"/>
		</linearGradient>
		<clipPath clipPathUnits="userSpaceOnUse" id="cp62">
			<path d="m564.46 865.79c-6.24 3.6-14.22 1.46-17.82-4.78-3.61-6.23-1.47-14.21 4.77-17.81 6.24-3.61 14.22-1.47 17.82 4.77 3.6 6.24 1.46 14.22-4.77 17.82z"/>
		</clipPath>
		<linearGradient id="g62" x1="545.1" y1="877" x2="532.1" y2="854.4" gradientUnits="userSpaceOnUse">
			<stop offset="0" stop-color="#b5c7da"/>
			<stop offset="1" stop-color="#667481"/>
		</linearGradient>
		<clipPath clipPathUnits="userSpaceOnUse" id="cp63">
			<path d="m571.82 830.21l-7.71 23.69c-1.06 3.23-2.78 6.17-6.18 6.17-3.39 0-5.12-2.95-6.17-6.17l-7.71-23.69z"/>
		</clipPath>
		<linearGradient id="g63" x1="532" y1="840.1" x2="545.3" y2="826" gradientUnits="userSpaceOnUse">
			<stop offset="0" stop-color="#312e7d"/>
			<stop offset="1" stop-color="#16153f"/>
		</linearGradient>
		<clipPath clipPathUnits="userSpaceOnUse" id="cp64">
			<path d="m559.83 857.78c-1.81 1.05-4.14 0.43-5.19-1.39-1.04-1.82-0.42-4.14 1.39-5.19 1.82-1.04 4.14-0.42 5.19 1.39 1.05 1.82 0.43 4.14-1.39 5.19z"/>
		</clipPath>
		<linearGradient id="g64" x1="553" y1="861.7" x2="549.2" y2="855.2" gradientUnits="userSpaceOnUse">
			<stop offset="0" stop-color="#1a2029"/>
			<stop offset="1" stop-color="#373f4b"/>
		</linearGradient>
		<clipPath clipPathUnits="userSpaceOnUse" id="cp65">
			<path d="m563.17 789.05l-20.86 34.53h163.01c2.75 0 4.98 2.23 4.98 4.98 0 2.75-2.23 4.99-4.98 4.99h-171.84v-0.01c-0.87 0-1.76-0.23-2.56-0.72-2.36-1.41-3.11-4.47-1.7-6.82l26.76-44.28c0.84-1.56 2.49-2.63 4.39-2.63h162.57c2.75 0 4.98 2.23 4.98 4.98 0 2.75-2.23 4.98-4.98 4.98z"/>
		</clipPath>
		<linearGradient id="g65" x1="525.3" y1="834" x2="525.8" y2="779.1" gradientUnits="userSpaceOnUse">
			<stop offset="0" stop-color="#16153f"/>
			<stop offset=".2" stop-color="#312e7d"/>
			<stop offset=".3" stop-color="#16153f"/>
			<stop offset=".8" stop-color="#16153f"/>
			<stop offset="1" stop-color="#312e7d"/>
		</linearGradient>
		<clipPath clipPathUnits="userSpaceOnUse" id="cp66">
			<path d="m498.84 612c3.76 0.77 6.19 4.44 5.42 8.2-0.77 3.76-4.44 6.19-8.2 5.42l-28.12-5.76c-3.76-0.76-6.19-4.43-5.42-8.19 0.77-3.76 4.44-6.19 8.2-5.42z"/>
		</clipPath>
		<linearGradient id="g66" x1="458.5" y1="609.6" x2="460.3" y2="603.3" gradientUnits="userSpaceOnUse">
			<stop offset="0" stop-color="#2069b2"/>
			<stop offset="1" stop-color="#3fa2d9"/>
		</linearGradient>
		<clipPath clipPathUnits="userSpaceOnUse" id="cp67">
			<path d="m503.74 514.22l-8.84 37.62c-0.62 2.66-3.25 5-5.84 5.2l-0.12 0.01 10.36-44.1c0.15-0.66 0.81-1.25 1.46-1.3l0.87-0.07c1.53-0.11 2.48 1.07 2.11 2.64z"/>
		</clipPath>
		<linearGradient id="g67" x1="492.5" y1="560" x2="487.9" y2="558.9" gradientUnits="userSpaceOnUse">
			<stop offset="0" stop-color="#2a2868"/>
			<stop offset=".5" stop-color="#16153f"/>
			<stop offset="1" stop-color="#3e3e8d"/>
		</linearGradient>
		<clipPath clipPathUnits="userSpaceOnUse" id="cp68">
			<path d="m500.19 511.83l-10.79 45.14q-0.01 0.05-0.06 0.06l-0.31 0.02c-0.27 0.02-0.43-0.18-0.37-0.46l10.57-44.24c0.07-0.28 0.34-0.52 0.61-0.54l0.31-0.03q0.04 0 0.04 0.05z"/>
		</clipPath>
		<linearGradient id="g68" x1="488.3" y1="559.1" x2="487.8" y2="558.9" gradientUnits="userSpaceOnUse">
			<stop offset="0" stop-color="#16153f"/>
			<stop offset="1" stop-color="#3e3e8d"/>
		</linearGradient>
		<clipPath clipPathUnits="userSpaceOnUse" id="cp69">
			<path d="m492.39 541.26c0.82 0.7-1.63 5.19-1.37 7.24 0.2 1.53 2.43 0.19 2.84-0.19 7.17-6.67 0.84-15.06 4.82-16.17 1.82 1.62 4.97 10.48 1.54 18.46-3.03 7.03-4.5 10.47-16.79 14.55-16.7 3.79-38.24 36.78-66.33 31.72-6.16-8.38-16.58-15.18-21.97-22.82l17.47-12.49c6.5 6.5 11.29 12.03 15.51 18.41 15.02-11.24 38.55-15.59 50.44-23.19 6.61-3.38 9.81-18.93 13.84-15.52z"/>
		</clipPath>
		<linearGradient id="g69" x1="391.7" y1="587.2" x2="389.9" y2="568.4" gradientUnits="userSpaceOnUse">
			<stop offset="0" stop-color="#fabe74"/>
			<stop offset="1" stop-color="#fbe4c0"/>
		</linearGradient>
		<clipPath clipPathUnits="userSpaceOnUse" id="cp70">
			<path d="m421.03 521.39c1.42 0.78 3.67 3.3 3.67 3.3 6.97 9.24 14.71 16.49 19.73 25.91 7.49 14.02-9.88 24.6-10.49 29.18-2.66 19.71-5.76 30.36 3.06 45.37 3.39 5.76 4.27 14.11 2.01 18.67-26.79 18.97-59.41 9.08-59.41 9.08-3.07-3.16-6.13-7.3-5.94-12.17 1.11-27.38 18.02-2.94 3.98-66.62-8.27-37.5 3.3-51.31 9.99-59 7.29-8.38 9.08-9.44 12.07-7.96 6.89 3.08 15.62 11.09 21.33 14.24z"/>
		</clipPath>
		<linearGradient id="g70" x1="366" y1="657.1" x2="340.3" y2="550.4" gradientUnits="userSpaceOnUse">
			<stop offset="0" stop-color="#f27120"/>
			<stop offset=".4" stop-color="#f89f19"/>
			<stop offset="1" stop-color="#fbb43c"/>
		</linearGradient>
		<clipPath clipPathUnits="userSpaceOnUse" id="cp71">
			<path d="m497.84 607.88c1.78 2.83 3.98 6.63 4.47 10.14 0.52 3.67-1.05 7.34-2.53 4.38-1.08-2.14-1.67-4.88-3.8-6.19-4.03-2.48-13.98 3.37-17.25-4.33-11.87-6.55-37.28-4.78-61.12-14.99-4.13-9.55-14.14-20.2-17.69-28.85l19.08-7.7c4.89 7.78 7.01 13.75 9.7 20.9 13.38 2.25 31.88 16.58 53.24 19.83 4.41 0.63 12.73 5.24 15.9 6.81z"/>
		</clipPath>
		<linearGradient id="g71" x1="386.7" y1="581.4" x2="396" y2="563.6" gradientUnits="userSpaceOnUse">
			<stop offset="0" stop-color="#fabe74"/>
			<stop offset="1" stop-color="#fbe4c0"/>
		</linearGradient>
		<clipPath clipPathUnits="userSpaceOnUse" id="cp72">
			<path d="m418.42 555.26l4.48 11.52c-5.39 5.2-11.67 9.67-20.03 11.76l-9.69-12.92c-23.5-33.96 3.08-69.3 25.24-10.36z"/>
		</clipPath>
		<linearGradient id="g72" x1="342.2" y1="530.2" x2="360.9" y2="504.8" gradientUnits="userSpaceOnUse">
			<stop offset="0" stop-color="#f27120"/>
			<stop offset=".5" stop-color="#f89f19"/>
			<stop offset="1" stop-color="#fcc16a"/>
		</linearGradient>
		<clipPath clipPathUnits="userSpaceOnUse" id="cp73">
			<path d="m408.2 444.52c6.14-2.95 13.34-0.74 16.07 4.93 2.73 5.68-0.04 12.68-6.18 15.64-6.14 2.95-13.34 0.74-16.07-4.94-2.73-5.67 0.04-12.67 6.18-15.63z"/>
		</clipPath>
		<linearGradient id="g73" x1="391.6" y1="458.5" x2="389.6" y2="455.1" gradientUnits="userSpaceOnUse">
			<stop offset="0" stop-color="#ec1d24"/>
			<stop offset="1" stop-color="#ef5069"/>
		</linearGradient>
		<clipPath clipPathUnits="userSpaceOnUse" id="cp74">
			<path d="m410.68 446.41c7.35-3.54 15.64-1.54 18.53 4.46 2.88 5.99-0.74 13.72-8.09 17.26-7.34 3.53-15.64 1.54-18.53-4.46-2.88-6 0.74-13.73 8.09-17.26z"/>
		</clipPath>
		<linearGradient id="g74" x1="391.5" y1="462.4" x2="389.2" y2="458.9" gradientUnits="userSpaceOnUse">
			<stop offset="0" stop-color="#ec1d24"/>
			<stop offset="1" stop-color="#ef5069"/>
		</linearGradient>
		<clipPath clipPathUnits="userSpaceOnUse" id="cp75">
			<path d="m426.35 506.64c0 0-10.4 12.26-1.81 20.96-0.47 9.56-25.61-11.68-29.32-18.94 5.64-0.3 9.84-13.11 9.39-17.88l3.73 0.32z"/>
		</clipPath>
		<linearGradient id="g75" x1="435.8" y1="514.5" x2="432" y2="526.1" gradientUnits="userSpaceOnUse">
			<stop offset="0" stop-color="#fabe74"/>
			<stop offset="1" stop-color="#fbe4c0"/>
		</linearGradient>
		<clipPath clipPathUnits="userSpaceOnUse" id="cp76">
			<path d="m444.02 487.27c-1.02 3.96 1.86 12.24 1.52 13.56-0.32 1.27-5.72-0.37-6.22 0.5-2.58 4.53-2.83 4.82-6.57 13.4-2.27 5.23-26.84-11.8-28.31-23.99-0.08-0.67-0.93 0.84-1.8-0.29-5.46-7.03-9.13-22.38 0.33-19.51 0 0 7.71-21.33 23.4-17.81 0 0 18.7 1.12 19.62 10.65 4.02 9.62 0.44 16.86-1.97 23.49z"/>
		</clipPath>
		<linearGradient id="g76" x1="365.7" y1="482" x2="391.4" y2="449.1" gradientUnits="userSpaceOnUse">
			<stop offset="0" stop-color="#facb8e"/>
			<stop offset="1" stop-color="#fdf2dc"/>
		</linearGradient>
		<clipPath clipPathUnits="userSpaceOnUse" id="cp77">
			<path d="m448.31 487.26c-10.63-1.72-21.45-10.5-23.36-20.5-1.45 6.75-10.36 12.56-18.13 11.53l-0.84 14.75-3.25-17.3c-11.47-45.96 58.39-36.28 49.17 1.17z"/>
		</clipPath>
		<linearGradient id="g77" x1="410.9" y1="515.8" x2="378.3" y2="482.7" gradientUnits="userSpaceOnUse">
			<stop offset="0" stop-color="#16153f"/>
			<stop offset="1" stop-color="#312e7d"/>
		</linearGradient>
	</defs>
	<style>
		.s0 { fill: #b7d9f9 } 
		.s1 { fill: url(#g1) } 
		.s2 { fill: url(#g2) } 
		.s3 { fill: url(#g3) } 
		.s4 { fill: url(#g4) } 
		.s5 { fill: url(#g5) } 
		.s6 { fill: #360e94 } 
		.s7 { fill: #332a7c } 
		.s8 { fill: url(#g6) } 
		.s9 { fill: url(#g7) } 
		.s10 { fill: url(#g8) } 
		.s11 { fill: url(#g9) } 
		.s12 { fill: url(#g10) } 
		.s13 { fill: #d7c6fb } 
		.s14 { fill: #4512b1 } 
		.s15 { fill: #631aec } 
		.s16 { fill: #a67df5 } 
		.s17 { fill: #ede6fe } 
		.s18 { fill: #c7aef9 } 
		.s19 { fill: #5416cf } 
		.s20 { fill: #1a1840 } 
		.s21 { fill: #9564f2 } 
		.s22 { fill: #7433ee } 
		.s23 { fill: #f2edff } 
		.s24 { fill: url(#g11) } 
		.s25 { fill: #1369b1 } 
		.s26 { fill: url(#g12) } 
		.s27 { fill: url(#g13) } 
		.s28 { fill: url(#g14) } 
		.s29 { fill: #b695f7 } 
		.s30 { fill: url(#g15) } 
		.s31 { fill: #217dc5 } 
		.s32 { fill: url(#g16) } 
		.s33 { fill: url(#g17) } 
		.s34 { fill: url(#g18) } 
		.s35 { fill: url(#g19) } 
		.s36 { fill: #6e68a8 } 
		.s37 { fill: url(#g20) } 
		.s38 { fill: url(#g21) } 
		.s39 { fill: url(#g22) } 
		.s40 { fill: url(#g23) } 
		.s41 { fill: #f20010 } 
		.s42 { fill: #221e54 } 
		.s43 { fill: url(#g24) } 
		.s44 { fill: url(#g25) } 
		.s45 { fill: url(#g26) } 
		.s46 { fill: url(#g27) } 
		.s47 { fill: url(#g28) } 
		.s48 { fill: url(#g29) } 
		.s49 { fill: url(#g30) } 
		.s50 { fill: url(#g31) } 
		.s51 { fill: #c5d2e1 } 
		.s52 { fill: url(#g32) } 
		.s53 { fill: url(#g33) } 
		.s54 { fill: url(#g34) } 
		.s55 { fill: url(#g35) } 
		.s56 { fill: url(#g36) } 
		.s57 { fill: url(#g37) } 
		.s58 { fill: url(#g38) } 
		.s59 { fill: url(#g39) } 
		.s60 { fill: #f1f3f8 } 
		.s61 { fill: #ffa000 } 
		.s62 { fill: #ff7200 } 
		.s63 { fill: url(#g40) } 
		.s64 { fill: #ffbc56 } 
		.s65 { fill: #ffa715 } 
		.s66 { fill: #fb394b } 
		.s67 { fill: #f61d2d } 
		.s68 { fill: #fe4300 } 
		.s69 { fill: #473f8b } 
		.s70 { fill: #2b2468 } 
		.s71 { fill: #3ea5ec } 
		.s72 { fill: #3091d8 } 
		.s73 { fill: url(#g41) } 
		.s74 { fill: url(#g42) } 
		.s75 { fill: url(#g43) } 
		.s76 { fill: url(#g44) } 
		.s77 { fill: url(#g45) } 
		.s78 { fill: url(#g46) } 
		.s79 { fill: url(#g47) } 
		.s80 { fill: url(#g48) } 
		.s81 { fill: url(#g49) } 
		.s82 { fill: url(#g50) } 
		.s83 { fill: url(#g51) } 
		.s84 { fill: url(#g52) } 
		.s85 { fill: #9592c5 } 
		.s86 { fill: url(#g53) } 
		.s87 { fill: url(#g54) } 
		.s88 { fill: url(#g55) } 
		.s89 { fill: url(#g56) } 
		.s90 { fill: url(#g57) } 
		.s91 { fill: url(#g58) } 
		.s92 { fill: url(#g59) } 
		.s93 { fill: url(#g60) } 
		.s94 { fill: url(#g61) } 
		.s95 { fill: url(#g62) } 
		.s96 { fill: url(#g63) } 
		.s97 { fill: url(#g64) } 
		.s98 { fill: url(#g65) } 
		.s99 { fill: url(#g66) } 
		.s100 { fill: url(#g67) } 
		.s101 { fill: url(#g68) } 
		.s102 { fill: url(#g69) } 
		.s103 { fill: url(#g70) } 
		.s104 { fill: #ff5a1f } 
		.s105 { fill: url(#g71) } 
		.s106 { fill: url(#g72) } 
		.s107 { fill: url(#g73) } 
		.s108 { fill: url(#g74) } 
		.s109 { fill: url(#g75) } 
		.s110 { fill: url(#g76) } 
		.s111 { fill: url(#g77) } 
	</style>
	<g id="Layer 1">
		<path id="&lt;Path&gt;" class="s0" d="m846.5 852.7c133.4 0 241.6 4.2 241.6 9.4 0 5.2-108.2 9.4-241.6 9.4-133.4 0-241.6-4.2-241.6-9.4 0-5.2 108.2-9.4 241.6-9.4z"/>
		<g id="&lt;Clip Group&gt;" clip-path="url(#cp1)">
			<path id="&lt;Path&gt;" class="s1" d="m1061.3 698.4h38.1v34.6h-38.1z"/>
		</g>
		<g id="&lt;Clip Group&gt;" clip-path="url(#cp2)">
			<path id="&lt;Path&gt;" class="s2" d="m1043.1 729.9h18.9v25.3h-18.9z"/>
		</g>
		<g id="&lt;Clip Group&gt;" clip-path="url(#cp3)">
			<path id="&lt;Path&gt;" class="s3" d="m1057.2 741.9h29.5v18h-29.5z"/>
		</g>
		<g id="&lt;Clip Group&gt;" clip-path="url(#cp4)">
			<path id="&lt;Path&gt;" class="s4" d="m1047.3 774.6h35.3v21.3h-35.3z"/>
		</g>
		<g id="&lt;Clip Group&gt;" clip-path="url(#cp5)">
			<path id="&lt;Path&gt;" class="s5" d="m1029.6 759.9h22.4v30.3h-22.4z"/>
		</g>
		<path id="&lt;Path&gt;" class="s6" d="m1075.2 718.8c0.6-0.8 1.7-0.9 2.4-0.3 0.8 0.6 0.9 1.7 0.3 2.4-23 29.4-30.8 82.5-30.8 82.7-0.2 0.9-1.1 1.6-2 1.4-0.9-0.1-1.6-1-1.5-1.9 0.1-0.2 8-54.1 31.6-84.3z"/>
		<path id="&lt;Compound Path&gt;" fill-rule="evenodd" class="s7" d="m1146.3 767.3c-0.7 1.4-1.7 2.8-2.8 4.1-2.3 2.6-5.2 4.7-8.4 5.6-3.2 1-6.7 0.9-10-0.8q-1.4-0.7-2.7-1.8c-64 13.2-91.3 57-91.4 57.1-0.4 0.5-1.1 0.7-1.6 0.3-0.6-0.3-0.7-1-0.4-1.6 0.1-0.1 28-44.7 93-58.1q0.5-1.1 1.1-2.1c2.1-3.6 5.1-5.7 8.6-6.6 3.4-0.9 7.1-0.6 10.6 0.7q1.9 0.6 3.6 1.6l0.9 0.6zm-62.9-11.8c1.3 1.4 2.4 2.9 3.3 4.5 1.9 3.3 2.9 7.1 2.8 10.8-0.2 3.7-1.6 7.2-4.6 10q-1.4 1.3-3.3 2.4l-0.6 0.4-0.7-0.5q-1.4-1.2-2.5-2.5c-2.9-3.4-3.9-7.4-3.6-11.3 0.3-3.8 2-7.6 4.6-10.8q1.3-1.6 3-3.1l0.9-0.7zm24.4 2.2q0.8 1.8 1.2 3.6c0.4 2.6 0.2 5.3-0.7 7.7-1 2.4-2.7 4.4-5.3 5.6q-1.2 0.5-2.7 0.8l-0.8 0.1-0.4-0.7q-0.6-1.1-1.1-2.1c-1.1-3-0.9-5.8 0.3-8.3 1-2.4 3-4.5 5.4-6q1.3-0.8 2.7-1.3l1-0.4zm-49.2 7.3c1.6 1 3.1 2.1 4.3 3.4 2.7 2.8 4.6 6.2 5.4 9.8 0.8 3.6 0.3 7.4-1.9 10.9q-1 1.6-2.6 3.1l-0.5 0.5-0.8-0.3q-1.6-0.8-3-1.7c-3.7-2.7-5.7-6.2-6.3-10.1-0.7-3.8 0-7.9 1.7-11.6q0.9-2 2.2-3.7l0.6-0.9zm61.2 25.4q-1.7 0.6-3.5 0.8c-2.4 0.3-4.9-0.1-7-1.1-2.2-1.1-4-2.9-4.9-5.4q-0.4-1.1-0.5-2.5l-0.1-0.8 0.7-0.4q1-0.5 2.1-0.8c2.8-0.9 5.4-0.5 7.7 0.7 2.2 1.2 4 3.2 5.2 5.5q0.6 1.2 1 2.6l0.3 1zm-12.1 11.6c-1.6 0.6-3.3 1-5 1.2-3.7 0.4-7.3-0.2-10.4-1.7-3.2-1.5-5.8-4.1-7.1-7.7q-0.6-1.7-0.8-3.7l-0.1-0.8 0.7-0.4q1.5-0.8 3.1-1.3c4.1-1.2 7.9-0.6 11.2 1.1 3.2 1.8 5.9 4.7 7.6 8.1q1 1.8 1.6 3.8l0.3 1zm-16.3 16.3c-2 0.4-4 0.5-6 0.4-4.2-0.2-8.3-1.5-11.5-3.8-3.3-2.4-5.7-5.8-6.5-10.1q-0.4-2.1-0.3-4.4v-0.8l0.8-0.3q1.9-0.6 3.7-0.8c4.9-0.6 9.1 0.7 12.5 3.3 3.4 2.6 5.8 6.4 7.2 10.6q0.7 2.3 1.1 4.6l0.1 1.1zm-12.3 18.5c-2.5 0.5-5 0.7-7.6 0.5-5.3-0.3-10.4-1.9-14.5-4.8-4.2-3-7.2-7.2-8.3-12.7q-0.4-2.6-0.3-5.6l0.1-0.8 0.7-0.2q2.5-0.8 4.8-1.1c6.1-0.8 11.4 0.9 15.7 4.2 4.2 3.3 7.3 8 9.1 13.4q0.9 2.9 1.3 5.8l0.1 1.1zm-47.5-64.8c2.4 0.8 4.8 1.8 6.9 3 4.6 2.7 8.4 6.5 10.7 10.9 2.3 4.5 3.1 9.6 1.5 14.9q-0.7 2.5-2.2 5l-0.4 0.7-0.8-0.1q-2.5-0.4-4.6-1.2c-5.8-2-9.7-6-12-10.8-2.3-4.8-2.9-10.4-2-15.9q0.5-2.9 1.5-5.7l0.3-1.1z"/>
		<g id="&lt;Clip Group&gt;" clip-path="url(#cp6)">
			<path id="&lt;Path&gt;" class="s8" d="m508.8 736.9h22.5v20.4h-22.5z"/>
		</g>
		<g id="&lt;Clip Group&gt;" clip-path="url(#cp7)">
			<path id="&lt;Path&gt;" class="s9" d="m530.8 755.4h11.2v14.9h-11.2z"/>
		</g>
		<g id="&lt;Clip Group&gt;" clip-path="url(#cp8)">
			<path id="&lt;Path&gt;" class="s10" d="m516.3 762.5h17.4v10.6h-17.4z"/>
		</g>
		<g id="&lt;Clip Group&gt;" clip-path="url(#cp9)">
			<path id="&lt;Path&gt;" class="s11" d="m518.7 781.8h20.8v12.5h-20.8z"/>
		</g>
		<g id="&lt;Clip Group&gt;" clip-path="url(#cp10)">
			<path id="&lt;Path&gt;" class="s12" d="m536.7 773.1h13.2v17.8h-13.2z"/>
		</g>
		<path id="&lt;Path&gt;" class="s6" d="m541.7 798.5c0 0.6-0.4 1.1-0.9 1.2-0.6 0-1.1-0.3-1.2-0.9 0-0.1-4.6-31.3-18.1-48.7-0.4-0.4-0.3-1 0.1-1.4 0.5-0.3 1.1-0.3 1.5 0.2 13.9 17.7 18.5 49.5 18.6 49.6z"/>
		<path id="&lt;Compound Path&gt;" fill-rule="evenodd" class="s7" d="m480.9 776.8l0.6-0.3q1-0.6 2.1-1c2-0.7 4.2-0.9 6.2-0.3 2.1 0.5 3.9 1.7 5.1 3.8q0.3 0.6 0.6 1.3c38.3 7.9 54.7 34.1 54.8 34.2 0.2 0.3 0.1 0.7-0.3 0.9-0.3 0.2-0.7 0.1-0.9-0.2 0 0-16.2-25.8-53.8-33.6q-0.8 0.7-1.6 1.1c-2 1-4 1.1-5.9 0.5-1.9-0.6-3.6-1.8-4.9-3.3q-1-1.2-1.7-2.5zm37.8-6.8l0.5 0.4q1 0.9 1.8 1.9c1.5 1.8 2.5 4 2.7 6.3 0.2 2.3-0.5 4.6-2.2 6.7q-0.6 0.7-1.5 1.4l-0.3 0.3-0.4-0.2q-1.1-0.7-1.9-1.4c-1.8-1.7-2.6-3.8-2.7-6-0.1-2.1 0.5-4.3 1.6-6.3q0.8-1.4 1.9-2.6zm-14.6 1.1l0.7 0.3q0.8 0.3 1.5 0.8c1.4 0.8 2.6 2 3.2 3.5 0.7 1.4 0.8 3.1 0.1 4.8q-0.2 0.7-0.6 1.3l-0.2 0.4-0.5-0.1q-0.9-0.1-1.6-0.4c-1.5-0.7-2.5-1.9-3.1-3.3-0.5-1.4-0.7-3-0.4-4.5q0.2-1.1 0.7-2.2zm29.2 4.6l0.4 0.5q0.7 1 1.3 2.2c1 2.2 1.4 4.6 1 6.8-0.4 2.3-1.6 4.4-3.8 5.9q-0.8 0.6-1.8 1.1l-0.4 0.2-0.3-0.4q-0.9-0.9-1.5-1.8c-1.3-2-1.6-4.3-1.1-6.4 0.4-2.1 1.6-4.1 3.1-5.7q1.2-1.2 2.6-2.1zm-37.2 15.1l0.2-0.6q0.2-0.8 0.6-1.5c0.7-1.4 1.7-2.6 3-3.3 1.4-0.7 2.9-0.9 4.6-0.4q0.6 0.2 1.2 0.5l0.4 0.2v0.5q-0.1 0.8-0.4 1.5c-0.5 1.5-1.5 2.5-2.8 3.1-1.3 0.6-2.7 0.8-4.2 0.7q-1-0.1-2-0.5zm7.1 6.8l0.2-0.6q0.3-1.1 0.9-2.2c1-2 2.6-3.7 4.5-4.8 1.9-1 4.2-1.3 6.6-0.6q0.9 0.3 1.8 0.7l0.4 0.3v0.4q-0.2 1.2-0.5 2.2c-0.8 2.2-2.3 3.7-4.2 4.6-1.8 0.9-4 1.2-6.1 1q-1.5-0.2-3-0.7zm9.6 9.6l0.1-0.6q0.1-1.4 0.6-2.7c0.8-2.5 2.2-4.7 4.2-6.2 2-1.6 4.5-2.4 7.3-2q1.1 0.1 2.2 0.5l0.5 0.1v0.5q0.1 1.4-0.1 2.6c-0.5 2.6-1.9 4.6-3.9 5.9-1.9 1.4-4.3 2.1-6.7 2.3q-1.8 0.1-3.6-0.2zm7.2 10.9l0.1-0.7q0.2-1.7 0.8-3.4c1-3.2 2.8-6 5.3-7.9 2.5-1.9 5.7-2.9 9.3-2.5q1.3 0.2 2.8 0.7l0.4 0.1v0.5q0.1 1.7-0.1 3.2c-0.6 3.3-2.4 5.8-4.9 7.5-2.4 1.7-5.4 2.7-8.6 2.9q-2.2 0.1-4.4-0.3zm29.2-38.2l0.2 0.6q0.6 1.6 0.9 3.4c0.5 3.2 0.1 6.5-1.2 9.3-1.3 2.9-3.7 5.2-7 6.4q-1.3 0.4-2.8 0.7l-0.5 0.1-0.2-0.4q-0.9-1.5-1.3-3c-0.9-3.1-0.5-6.2 0.9-8.8 1.4-2.6 3.6-4.8 6.3-6.4q1.9-1.1 4.1-1.7z"/>
		<path id="&lt;Compound Path&gt;" class="s13" d="m650.1 437.7c0-1.3 1.8-1.7 2.4-0.5q0.1 0.3 0.1 0.5v0.5 0.9 0.8l-0.1 0.9v0.9 1c-0.1 1.4-2.1 1.6-2.5 0.1q0-0.1 0-0.3l0.1-0.9v-0.9-0.8-0.8-0.9zm-0.8-12c-0.1-1.3 1.5-1.9 2.2-0.9q0.2 0.3 0.3 0.6l0.1 0.9 0.1 0.8 0.1 0.9 0.1 0.8v0.9l0.1 0.6c0.1 1.5-1.9 1.8-2.4 0.5q0-0.2 0-0.3l-0.1-0.6-0.1-0.8-0.1-0.9v-0.8l-0.1-0.8zm-2.4-11.8c-0.3-1.4 1.4-2.2 2.2-1.1 0.1 0.2 0.1 0.3 0.1 0.4l0.2 0.4 0.2 0.9 0.2 0.8 0.2 0.8 0.2 0.9 0.2 1c0.1 0.5-0.1 1-0.4 1.3-0.8 0.5-1.8 0.1-2-0.8l-0.2-1-0.2-0.8-0.2-0.8-0.2-0.8-0.2-0.8zm-3.9-11.4c-0.2-0.5-0.1-0.9 0.2-1.3 0.6-0.7 1.7-0.5 2.1 0.3l0.2 0.7 0.4 0.8 0.3 0.8 0.3 0.8 0.3 0.9 0.2 0.6c0.5 1.3-1.2 2.3-2.1 1.2q-0.1-0.1-0.2-0.3l-0.2-0.7-0.3-0.8-0.3-0.8-0.3-0.8-0.3-0.7zm-5.4-10.8c-0.7-1.1 0.7-2.4 1.8-1.6q0.2 0.2 0.3 0.4l0.5 0.9 0.4 0.7 0.5 0.8 0.4 0.7 0.4 0.8 0.2 0.4c0.6 1.2-0.9 2.4-1.9 1.5q-0.2-0.2-0.3-0.4l-0.2-0.4-0.4-0.7-0.4-0.7-0.4-0.8-0.4-0.7zm-6.8-10c-0.8-1 0.4-2.4 1.6-1.8q0.2 0.1 0.3 0.3l0.7 1 0.6 0.7 0.5 0.7 0.5 0.7 0.7 0.9c0.3 0.4 0.3 0.9 0 1.3-0.4 0.8-1.5 0.8-2 0.1l-0.7-0.9-0.5-0.7-0.5-0.7-0.5-0.7zm-8.1-8.9c-1-0.9 0.1-2.5 1.4-1.9q0.2 0.1 0.3 0.2l0.8 0.8 0.6 0.6 0.7 0.6 0.6 0.7 0.8 0.8c0.8 0.9-0.1 2.4-1.4 2-0.1-0.1-0.3-0.2-0.4-0.3l-0.8-0.8-0.6-0.7-0.6-0.6-0.6-0.6zm-9.3-7.7c-1.1-0.8-0.2-2.6 1.2-2.1q0.1 0 0.3 0.1l0.6 0.5 0.7 0.5 0.7 0.6 0.8 0.5 0.7 0.6 0.4 0.3c1 0.9 0.2 2.5-1.1 2.1q-0.3 0-0.4-0.2l-0.4-0.3-0.7-0.5-0.7-0.6-0.8-0.5-0.7-0.6zm-10.2-6.4c-0.5-0.3-0.7-0.8-0.6-1.4 0.2-0.7 1.1-1.1 1.8-0.7l0.8 0.4 0.8 0.5 0.8 0.4 0.9 0.5 1 0.6c1.1 0.7 0.5 2.5-0.9 2.3q-0.2 0-0.4-0.2l-1-0.6-0.8-0.4-0.8-0.5-0.8-0.5zm-11-5c-1.2-0.4-0.9-2.3 0.4-2.3q0.3-0.1 0.5 0l0.5 0.2 0.9 0.4 1 0.4 0.9 0.4 0.9 0.4 0.4 0.1c1.2 0.6 0.8 2.4-0.6 2.4q-0.2 0-0.4-0.1l-0.4-0.2-0.9-0.4-0.9-0.4-0.9-0.3-0.9-0.4zm-11.5-3.7c-1.3-0.3-1.1-2.2 0.2-2.4q0.2 0 0.4 0.1l0.6 0.1 1 0.3 1 0.3 1 0.3 1.2 0.3c1.2 0.4 1.1 2.2-0.2 2.4q-0.3 0-0.5-0.1l-1.2-0.3-0.9-0.3-1-0.3-1-0.2zm-11.9-2.4c-1.4-0.2-1.4-2.2 0.1-2.4q0.1 0 0.3 0l1 0.1 1.1 0.2 1.1 0.2 1.1 0.2 0.6 0.1c1.2 0.2 1.3 2.1 0 2.4q-0.3 0-0.5 0l-0.6-0.1-1-0.2-1.1-0.2-1.1-0.1zm-12-1.2c-1.3-0.1-1.6-1.9-0.3-2.4q0.2-0.1 0.4 0h0.8l1.2 0.1h1.2l1.1 0.1 0.6 0.1c0.6 0 1.1 0.5 1.1 1 0.1 0.8-0.5 1.5-1.3 1.4h-0.6l-1.1-0.1-1.2-0.1-1.1-0.1zm-12.1 0c-1.4 0-1.8-1.9-0.5-2.4q0.2-0.1 0.4-0.1h1 1.3l1.2-0.1h1.4c0.4 0 0.8 0.2 1 0.5 0.6 0.8 0 2-1 2h-1.4-1.2-1.2zm-12.1 1c-1.2 0.1-1.8-1.5-0.9-2.2q0.3-0.2 0.7-0.3h0.5l1.3-0.2 1.3-0.1 1.3-0.1 0.5-0.1c1.2-0.1 1.8 1.5 0.8 2.3q-0.3 0.2-0.6 0.2h-0.5l-1.3 0.1-1.2 0.2-1.3 0.1z"/>
		<path id="&lt;Path&gt;" class="s14" d="m561.9 348.5l-45.2-5 42-7.7z"/>
		<path id="&lt;Path&gt;" class="s15" d="m516.7 343.5l44.7-15.2-2.7 7.5z"/>
		<path id="&lt;Path&gt;" class="s15" d="m556.6 342.1l-6 16.9-33.9-15.5z"/>
		<path id="&lt;Path&gt;" class="s6" d="m554.4 348.3l2.2-6.2 5.3 6.4z"/>
		<path id="&lt;Compound Path&gt;" class="s13" d="m1065.2 385.9l-1.1 0.2-1.1 0.2-1.5 0.2q-0.3 0-0.5 0c-1.3-0.5-1.1-2.2 0.1-2.4l1.5-0.2 1.1-0.2 1-0.2 1.2-0.2c0.1 0 0.2 0 0.4 0 1.3 0.3 1.3 2.1 0 2.4zm12.5-3.1l-0.9 0.3-0.9 0.3-0.8 0.2-1 0.3-0.6 0.2q-0.3 0-0.5 0c-1.3-0.2-1.4-2-0.1-2.4l0.6-0.1 0.9-0.3 0.8-0.2 0.9-0.3 0.8-0.2 0.5-0.2c0.8-0.3 1.6 0.3 1.6 1.1 0 0.5-0.4 1-0.8 1.2zm11.3-5.2l-0.6 0.4-0.6 0.3-0.6 0.4-0.7 0.3-0.6 0.4-0.7 0.3-0.2 0.1c-0.2 0.1-0.3 0.1-0.5 0.2-1.3 0-1.7-1.8-0.6-2.3l0.2-0.1 0.7-0.3 0.6-0.4 0.6-0.3 0.6-0.3 0.5-0.4 0.6-0.3 0.3-0.2c0.7-0.5 1.5-0.2 1.8 0.6 0.2 0.5 0 1.1-0.5 1.4zm9-9l-0.3 0.4-0.3 0.5-0.3 0.5-0.4 0.5-0.3 0.4-0.4 0.5-0.3 0.4-0.4 0.5-0.2 0.2q-0.2 0.2-0.4 0.3c-1.2 0.5-2.3-1-1.4-1.9l0.2-0.2 0.3-0.4 0.4-0.4 0.3-0.4 0.3-0.5 0.3-0.4 0.3-0.4 0.2-0.4 0.3-0.5 0.1-0.1q0.1-0.2 0.3-0.4c1.1-0.8 2.4 0.5 1.8 1.6zm3.3-11.7l-0.1 0.6v0.6l-0.1 0.5v0.6l-0.1 0.5-0.1 0.6-0.1 0.5-0.1 0.5c-0.2 0.8-1.1 1.2-1.8 0.8-0.4-0.2-0.7-0.8-0.6-1.3l0.1-0.4 0.1-0.5 0.1-0.5 0.1-0.5v-0.5l0.1-0.5v-0.6-0.5l0.1-0.6q0-0.2 0.1-0.4c0.5-1.2 2.3-0.8 2.3 0.5zm-1.1-11.9l0.1 0.6 0.1 0.6 0.1 0.7 0.1 0.6 0.1 0.6 0.2 0.8q0 0.3-0.1 0.5c-0.3 1.3-2.2 1.1-2.3-0.2l-0.2-0.7v-0.6l-0.2-0.6-0.1-0.6-0.1-0.6-0.1-0.6-0.2-0.9c-0.2-0.8 0.4-1.5 1.2-1.5 0.6 0.1 1 0.4 1.2 1zm-2.1-8c0.1 0.3 0 0.7-0.1 1-0.6 0.9-1.9 0.7-2.2-0.3q-0.7-2.3-1.5-4.6c-0.2-0.6 0.1-1.2 0.7-1.5 0.6-0.2 1.3 0.1 1.6 0.8q0.8 2.3 1.5 4.6zm-4-11.5q0.1 0.2 0.1 0.5c0 1.3-1.9 1.6-2.4 0.4q-0.8-2.3-1.7-4.5 0-0.2-0.1-0.4c0-1.4 1.9-1.8 2.4-0.5q0.8 2.3 1.7 4.5zm-4.3-11.2q0 0.1 0 0.3c0.1 1.4-1.8 1.8-2.3 0.5q-0.9-2.2-1.7-4.5c-0.4-1 0.7-2 1.7-1.5 0.3 0.2 0.4 0.4 0.6 0.7q0.8 2.2 1.7 4.5zm-4.2-11.3q0.1 0.2 0.1 0.5c-0.1 1.3-2 1.5-2.4 0.3q-0.8-2.3-1.5-4.6-0.1-0.3-0.1-0.5c0.2-1.3 2-1.4 2.4-0.2q0.7 2.2 1.5 4.5zm-4.4-14.8l0.2 0.7 0.2 0.7 0.1 0.7 0.4 1.3q0 0.1 0 0.3c0 1.4-2 1.6-2.4 0.3q-0.2-1-0.5-2.1l-0.1-0.7-0.2-0.7-0.2-0.7-0.1-0.5q0-0.2 0-0.4c0.1-1.4 2-1.5 2.4-0.2zm-1.9-12.5l0.1 0.7v0.7l0.1 0.7v0.7l0.1 0.7 0.1 0.8q0 0.2 0 0.3c-0.3 1.4-2.2 1.3-2.4 0l-0.1-0.9-0.1-0.7v-0.7l-0.1-0.7v-0.7l-0.1-0.8v-0.4c0-0.6 0.3-1.1 0.9-1.2 0.7-0.2 1.4 0.3 1.5 1.1zm0.6-11.5l-0.1 0.7-0.1 0.7-0.1 0.6-0.1 0.7v0.7l-0.1 0.6c-0.1 1-1.4 1.5-2.1 0.7-0.2-0.3-0.3-0.6-0.3-0.9l0.1-0.7v-0.7l0.1-0.7 0.1-0.7 0.1-0.7 0.1-0.7 0.2-0.7q0-0.3 0.2-0.5c0.7-1.1 2.4-0.4 2.2 0.9zm3.9-11.5l-0.3 0.6-0.3 0.7-0.3 0.6-0.3 0.6-0.3 0.7-0.2 0.6-0.2 0.3c-0.3 0.9-1.5 1-2.1 0.3-0.2-0.4-0.3-0.8-0.1-1.2l0.1-0.3 0.3-0.7 0.3-0.6 0.3-0.7 0.3-0.7 0.3-0.6 0.3-0.7 0.2-0.2c0.3-0.7 1.3-0.9 1.9-0.3 0.3 0.4 0.4 1 0.2 1.4zm5.9-8.4l-0.5 0.6-0.5 0.6-0.5 0.6-0.5 0.5c-0.6 0.8-1.7 0.6-2.1-0.3-0.1-0.4 0-0.8 0.2-1.1l0.5-0.7 0.5-0.6 0.5-0.6 0.6-0.6q0.5-0.7 1.1-1.3 0.4-0.3 0.9-0.4c1 0 1.6 1.3 0.9 2.1q-0.6 0.6-1.1 1.2zm6.2-6.1q-0.1 0.2-0.4 0.2c-1.3 0.4-2.1-1.2-1.1-2q1.9-1.6 3.8-3.1c0.7-0.4 1.6-0.1 1.9 0.6 0.2 0.5 0 1.1-0.4 1.4-1.3 0.9-2.5 1.9-3.8 2.9zm9.7-6.8q-0.2 0.1-0.4 0.1c-1.3 0.3-1.9-1.5-0.8-2.2q2.1-1.2 4.3-2.3c0.7-0.3 1.5 0 1.7 0.8 0.2 0.5-0.1 1.1-0.6 1.4q-2.1 1-4.2 2.2zm10.7-5c-0.7 0.3-1.6-0.3-1.6-1.1 0-0.5 0.3-1 0.8-1.2q2.3-0.8 4.7-1.5c0.8-0.2 1.6 0.5 1.5 1.4-0.1 0.4-0.4 0.8-0.9 1q-2.3 0.6-4.5 1.4zm11.4-2.8c-0.1 0-0.2 0-0.4 0-1.3-0.3-1.2-2.2 0.2-2.4q2.4-0.3 4.9-0.3 0.2 0 0.5 0.1c1.2 0.6 0.8 2.4-0.5 2.4q-2.3 0-4.7 0.2zm-77.2 161.7l1.3-0.2 1.3-0.1 0.9-0.1q0.2 0 0.4 0.1c1.3 0.4 1.1 2.2-0.2 2.3l-0.9 0.1-1.3 0.1-1.3 0.2-1.3 0.1c-1.3 0.1-1.8-1.5-0.8-2.2q0.3-0.2 0.6-0.2z"/>
		<path id="&lt;Path&gt;" class="s14" d="m1136.2 212.9l37.4-0.9-38 12.4z"/>
		<path id="&lt;Path&gt;" class="s15" d="m1136.2 212.9l-3.7-6 41.1 5.1z"/>
		<path id="&lt;Path&gt;" class="s15" d="m1173.6 212l-26.4 19.3-8.1-13.4z"/>
		<path id="&lt;Path&gt;" class="s6" d="m1135.6 224.4l3.5-6.5 3 4.9z"/>
		<path id="&lt;Path&gt;" class="s6" d="m1047 251.9c1.9 0 3.5 1.6 3.5 3.6v109.7c0 2-1.6 3.6-3.5 3.6-2 0-3.5-1.6-3.5-3.6v-109.7c0-2 1.5-3.6 3.5-3.6z"/>
		<path id="&lt;Path&gt;" class="s6" d="m1043.5 424.7v-39.5c0-1.9 1.5-3.6 3.5-3.6 1.9 0 3.5 1.7 3.5 3.6v39.5c0 1.9-1.6 3.6-3.5 3.6-2 0-3.5-1.7-3.5-3.6z"/>
		<path id="&lt;Path&gt;" class="s16" d="m685.1 147.9h322.8c22 0 40 18.4 40 40.9v633.1c0 22.5-18 40.9-40 40.9h-322.8c-22 0-39.9-18.4-39.9-40.9v-633.1c0-22.5 17.9-40.9 39.9-40.9z"/>
		<path id="&lt;Path&gt;" class="s15" d="m685.1 149.9h322.8c20.9 0 38.1 17.5 38.1 38.9v633.1c0 21.5-17.2 39-38.1 39h-322.8c-20.9 0-38.1-17.5-38.1-39v-633.1c0-21.4 17.2-38.9 38.1-38.9z"/>
		<path id="&lt;Path&gt;" class="s6" d="m795.7 188.1h101.6l9.5-23.3h101.1c12.9 0 23.4 10.8 23.4 24v633.1c0 13.2-10.5 24-23.4 24h-322.8c-12.9 0-23.4-10.8-23.4-24v-633.1c0-13.2 10.5-24 23.4-24h101.1z"/>
		<path id="&lt;Path&gt;" class="s17" d="m1007.9 168.7c10.8 0 19.7 9.1 19.7 20.1v633.1c0 11.1-8.9 20.2-19.7 20.2h-322.8c-10.8 0-19.7-9.1-19.7-20.2v-633.1c0-11 8.9-20.1 19.7-20.1h98.6l9.5 23.3h106.6l9.5-23.3z"/>
		<path id="&lt;Path&gt;" class="s18" d="m665.4 188.8c0-11.1 8.9-20.1 19.7-20.1h30.9c101.4 0 185.1 0 291.9 0 10.8 0 19.7 9.1 19.7 20.1v74.4c-5.9-4.8-9.6-11.4-9.6-18.6 0 14.7-15.3 26.8-34 26.8-18.8 0-34.1-12.1-34.1-26.8 0 14.7-15.3 26.8-34 26.8-18.7 0-34-12.1-34-26.8 0 14.7-15.4 26.8-34.1 26.8-18.7 0-34-12.1-34-26.8 0 14.7-15.3 26.8-34 26.8-18.8 0-34.1-12.1-34.1-26.8 0 14.7-15.3 26.8-34 26.8-18.7 0-34-12.1-34-26.8 0 8.2-4.8 15.6-12.3 20.6z"/>
		<path id="&lt;Path&gt;" class="s19" d="m888 813.2c-4.6 2.6-10.5 1.1-13.2-3.6-2.7-4.6-1.1-10.6 3.5-13.2 4.7-2.7 10.6-1.1 13.3 3.5 2.7 4.7 1.1 10.6-3.6 13.3z"/>
		<path id="&lt;Path&gt;" class="s18" d="m851.4 813.2c-4.7 2.6-10.6 1.1-13.3-3.6-2.7-4.6-1.1-10.6 3.6-13.2 4.6-2.7 10.5-1.1 13.2 3.5 2.7 4.7 1.1 10.6-3.5 13.3z"/>
		<path id="&lt;Path&gt;" class="s18" d="m814.7 813.2c-4.7 2.6-10.6 1.1-13.3-3.6-2.7-4.6-1.1-10.6 3.6-13.2 4.6-2.7 10.6-1.1 13.2 3.5 2.7 4.7 1.1 10.6-3.5 13.3z"/>
		<path id="&lt;Compound Path&gt;" class="s18" d="m719.7 466.6h99.8c7.8 0 14.2 6.4 14.2 14.2v99.8c0 7.8-6.4 14.2-14.2 14.2h-99.8c-7.8 0-14.3-6.4-14.3-14.2v-99.8c0-7.8 6.5-14.2 14.3-14.2zm160.4 0h99.7c7.9 0 14.3 6.4 14.3 14.2v99.8c0 7.8-6.4 14.2-14.3 14.2h-99.7c-7.9 0-14.3-6.4-14.3-14.2v-99.8c0-7.8 6.4-14.2 14.3-14.2zm-161.1-23.8v-3.5h19.3c0.5 0.2 0.8 1.3 0.8 1.8 0 0.4-0.3 1.6-0.8 1.8zm0 8.4v-3.6h52.1c0.5 0.2 0.8 1.4 0.8 1.8 0 0.4-0.3 1.6-0.9 1.8zm101.3-3.6v3.6h-36.5c-0.5-0.2-0.8-1.4-0.8-1.8 0-0.4 0.3-1.6 0.9-1.8zm0-8.4v3.6h-70.8c-0.5-0.2-0.7-1.4-0.7-1.8 0-0.4 0.2-1.6 0.8-1.8zm0-8.4v3.5h-101.2v-3.5zm59.9-134.8h99.7c7.9 0 14.3 6.4 14.3 14.2v99.8c0 7.9-6.4 14.3-14.3 14.3h-99.7c-7.9 0-14.3-6.4-14.3-14.3v-99.8c0-7.8 6.4-14.2 14.3-14.2zm-0.8 146.7v-3.5h19.4c0.5 0.2 0.8 1.3 0.8 1.8 0 0.4-0.3 1.6-0.9 1.7zm0 8.5v-3.6h52.2c0.5 0.2 0.7 1.4 0.7 1.8 0 0.4-0.2 1.6-0.8 1.8zm101.2-3.6v3.6h-36.4c-0.5-0.2-0.8-1.4-0.8-1.8 0-0.4 0.3-1.6 0.8-1.8zm0-8.4v3.6l-70.7-0.1c-0.5-0.1-0.8-1.3-0.8-1.7 0-0.5 0.3-1.6 0.9-1.8zm0-8.4v3.5h-101.2v-3.5zm-261.6 182.4v-3.6h19.3c0.5 0.2 0.8 1.4 0.8 1.8 0 0.4-0.3 1.6-0.8 1.8zm0 8.4v-3.6h52.1c0.5 0.2 0.8 1.4 0.8 1.8 0 0.4-0.3 1.6-0.8 1.8zm101.2-3.6v3.6h-36.5c-0.5-0.2-0.8-1.4-0.8-1.8 0-0.4 0.3-1.6 0.9-1.8zm0-8.4v3.6h-70.8c-0.5-0.2-0.7-1.4-0.7-1.8 0-0.4 0.2-1.6 0.8-1.8zm0-8.4v3.6h-101.2v-3.6zm59.2 12v-3.6h19.3c0.5 0.2 0.8 1.4 0.8 1.8 0 0.4-0.3 1.6-0.9 1.8zm0 8.4v-3.6h52.2c0.5 0.2 0.8 1.4 0.8 1.8 0 0.4-0.3 1.6-0.9 1.8zm101.2-3.6v3.6h-36.4c-0.5-0.2-0.8-1.4-0.8-1.8 0-0.4 0.3-1.6 0.8-1.8zm0-8.4v3.6h-70.7c-0.5-0.2-0.8-1.4-0.8-1.8 0-0.4 0.3-1.6 0.9-1.8zm0-8.4v3.6h-101.2v-3.6zm-100.5 38.6h99.7c7.9 0 14.3 6.4 14.3 14.2v99.8c0 7.8-6.4 14.2-14.3 14.2h-99.7c-7.9 0-14.3-6.4-14.3-14.2v-99.8c0-7.8 6.4-14.2 14.3-14.2zm-160.4-343.9h99.8c7.8 0 14.2 6.5 14.2 14.3v99.8c0 7.8-6.4 14.2-14.2 14.2h-99.8c-7.8 0-14.3-6.4-14.3-14.2v-99.8c0-7.8 6.5-14.3 14.3-14.3z"/>
		<path id="&lt;Compound Path&gt;" class="s20" d="m959.1 439c-0.6-0.2-0.8-1.4-0.8-1.8 0-0.5 0.2-1.7 0.7-1.9h19.7v3.7zm-33.4 8.5c-0.5-0.2-0.8-1.4-0.8-1.8 0-0.4 0.3-1.6 0.8-1.8h53v3.6zm-12.9-3.6c0.6 0.2 0.8 1.4 0.8 1.8 0 0.4-0.2 1.6-0.8 1.8h-37v-3.6zm34.8-8.6c0.6 0.2 0.8 1.4 0.8 1.8 0 0.5-0.2 1.7-0.7 1.9h-72v-3.7zm31.1-8.5v3.6h-102.9v-3.6z"/>
		<path id="&lt;Compound Path&gt;" class="s20" d="m796 439c-0.6-0.2-0.8-1.4-0.8-1.8 0-0.5 0.2-1.7 0.7-1.9h19.7v3.7zm-33.3 8.5c-0.6-0.2-0.9-1.4-0.9-1.8 0-0.4 0.3-1.6 0.8-1.8h53v3.6zm-12.9-3.6c0.6 0.2 0.8 1.4 0.8 1.8 0 0.4-0.2 1.6-0.7 1.8h-37.1v-3.6zm34.8-8.6c0.6 0.2 0.9 1.4 0.9 1.8 0 0.5-0.3 1.7-0.8 1.9h-71.9v-3.7zm31-8.5v3.6h-102.9v-3.6z"/>
		<path id="&lt;Compound Path&gt;" class="s20" d="m959.1 612.3c-0.6-0.2-0.8-1.4-0.8-1.8 0-0.4 0.2-1.6 0.7-1.8h19.7v3.6zm-33.4 8.5c-0.5-0.1-0.8-1.3-0.8-1.8 0-0.4 0.3-1.6 0.8-1.8h53v3.6zm-12.9-3.6c0.6 0.2 0.8 1.4 0.8 1.8 0 0.4-0.2 1.6-0.8 1.8h-37v-3.6zm34.8-8.5c0.6 0.2 0.8 1.4 0.8 1.8 0 0.4-0.2 1.6-0.7 1.8h-72v-3.6zm31.1-8.6v3.6l-102.9 0.1v-3.7z"/>
		<path id="&lt;Compound Path&gt;" class="s20" d="m796 612.3c-0.6-0.2-0.8-1.4-0.8-1.8 0-0.4 0.2-1.6 0.7-1.8h19.7v3.6zm-33.3 8.5c-0.6-0.1-0.9-1.3-0.9-1.8 0-0.4 0.3-1.6 0.8-1.8h53v3.6zm-12.9-3.6c0.6 0.2 0.8 1.4 0.8 1.8 0 0.4-0.2 1.6-0.7 1.8h-37.1v-3.6zm34.8-8.5c0.6 0.2 0.9 1.4 0.9 1.8 0 0.4-0.3 1.6-0.8 1.8h-71.9v-3.6zm31-8.6v3.6l-102.9 0.1v-3.7z"/>
		<path id="&lt;Path&gt;" class="s21" d="m713.4 639.3h101.5c8 0 14.5 6.6 14.5 14.5v101.5c0 8-6.5 14.5-14.5 14.5h-101.5c-7.9 0-14.5-6.5-14.5-14.5v-101.5c0-7.9 6.6-14.5 14.5-14.5z"/>
		<path id="&lt;Path&gt;" class="s22" d="m777.3 666.3l12.9 2.6 20.5 22.8 1.1 1 17.6 19.7v42.9c0 8-6.5 14.5-14.5 14.5h-52.7l-24.2-26.9-7.2-30.1-8.9-9.8q0-0.1-0.1-0.2 0 0 0 0c-2.6-2.9-4.4-6.5-5.2-10.1l22.8-21.9h0.1q-0.6-0.9-1.4-1.9l12.9-2.6 16.4 18.2c6.2-2.5 9.8-11.4 9.9-18.2z"/>
		<path id="&lt;Path&gt;" class="s23" d="m788.9 670.8l22.9 21.9c-1.7 6.7-6.5 13.5-13.7 15.7-8.9-1.7-15.6-14.7-15.6-23.1 0-8.3 3.8-11.1 6.3-14.5z"/>
		<path id="&lt;Path&gt;" class="s23" d="m739.5 670.8c2.5 3.4 6.4 6.2 6.4 14.5 0 8.4-6.8 21.4-15.7 23.1-7.2-2.2-12-9-13.6-15.7l22.8-21.9z"/>
		<g id="&lt;Clip Group&gt;" clip-path="url(#cp11)">
			<path id="&lt;Path&gt;" class="s24" d="m729.7 666.3h68.9v76.6h-68.9z"/>
		</g>
		<path id="&lt;Path&gt;" class="s25" d="m759.8 706.4c1.5-2.7 4.9-3.6 7.6-2 2.6 1.5 3.5 4.9 2 7.5-1.5 2.7-4.9 3.6-7.6 2-2.6-1.5-3.5-4.9-2-7.5z"/>
		<path id="&lt;Path&gt;" class="s23" d="m759.4 705.8c1.5-2.7 4.9-3.6 7.5-2.1 2.7 1.6 3.6 4.9 2.1 7.6-1.6 2.6-5 3.5-7.6 2-2.7-1.5-3.6-4.9-2-7.5z"/>
		<path id="&lt;Path&gt;" class="s21" d="m713.4 289.7h101.5c8 0 14.5 6.5 14.5 14.5v101.5c0 8-6.5 14.5-14.5 14.5h-101.5c-7.9 0-14.5-6.5-14.5-14.5v-101.5c0-8 6.6-14.5 14.5-14.5z"/>
		<path id="&lt;Path&gt;" class="s22" d="m786.4 315.8l43 55.7v34.2c0 8-6.5 14.5-14.5 14.5h-66.7l-17.5-22.7 19.1-47.8-4.9-14.6c1.2-2.3 2-4.9 2-7.7 0-2.9-0.8-5.6-2.1-8l-2.9-3.7 10.8-3.3 11.2 13.1 11.2-13.1z"/>
		<g id="&lt;Clip Group&gt;" clip-path="url(#cp12)">
			<path id="&lt;Path&gt;" class="s26" d="m730.7 312.4h66.9v85.1h-66.9z"/>
		</g>
		<path id="&lt;Path&gt;" class="s20" d="m749.8 349.7l-0.8-2.4h30.3l-0.8 2.4 1.8 4.6h-32.3z"/>
		<path id="&lt;Path&gt;" class="s21" d="m876.5 463.1h101.5c7.9 0 14.5 6.5 14.5 14.5v101.4c0 8-6.6 14.5-14.5 14.5h-101.5c-8 0-14.5-6.5-14.5-14.5v-101.4c0-8 6.5-14.5 14.5-14.5z"/>
		<path id="&lt;Path&gt;" class="s22" d="m893 493.9h68.4l31.1 29.9v55.7c0 7.7-6.3 14-14 14h-61.8l-33.9-30.9z"/>
		<g id="&lt;Clip Group&gt;" clip-path="url(#cp13)">
			<path id="&lt;Path&gt;" class="s27" d="m882.8 493.9h88.9v68.7h-88.9z"/>
		</g>
		<path id="&lt;Path&gt;" class="s21" d="m876.5 289.7h101.5c7.9 0 14.5 6.6 14.5 14.5v101.5c0 7.9-6.6 14.5-14.5 14.5h-101.5c-7.9 0-14.5-6.6-14.5-14.5v-101.5c0-7.9 6.6-14.5 14.5-14.5z"/>
		<path id="&lt;Path&gt;" class="s22" d="m895.1 316.6c5.1 0.7 9.1 3.9 12.4 8.5q0 0 0 0 0.1 0.1 0.2 0.2l31.6 43.3q1.8 0 3.9-0.6c9 1 17.6 7.3 22.5 13.7q0 0 0 0.1 0.1 0.2 0.3 0.3l23.5 32.3c-2.7 3.5-6.9 5.8-11.5 5.8h-67l-19.6-26.9-2.5-44.3c-8.6-12.3-1.8-27.9 6.2-32.4z"/>
		<g id="&lt;Clip Group&gt;" clip-path="url(#cp14)">
			<path id="&lt;Path&gt;" class="s28" d="m880.3 316.6h92.2v76.7h-92.2z"/>
		</g>
		<path id="&lt;Path&gt;" class="s29" d="m713.4 463.1h101.5c8 0 14.5 6.5 14.5 14.5v101.4c0 8-6.5 14.5-14.5 14.5h-101.5c-7.9 0-14.5-6.5-14.5-14.5v-101.4c0-8 6.6-14.5 14.5-14.5z"/>
		<path id="&lt;Path&gt;" class="s22" d="m760.2 493.8q1.9 0.7 4 0.7c6 0 11-4.2 12.3-9.9l13.8 3.8 20.6 19.7 18.5 20.4v50.5c0 8-6.5 14.5-14.5 14.5h-57.3l-19.5-21.5v-35.8l-10.4-11.4-10.3-16.7 20.7-19.7 13.7-3.8z"/>
		<g id="&lt;Clip Group&gt;" clip-path="url(#cp15)">
			<path id="&lt;Path&gt;" class="s30" d="m717.4 484.6h93.5v87.4h-93.5z"/>
		</g>
		<path id="&lt;Path&gt;" class="s18" d="m1147.3 348.1h83.9c2 0 3.7 1.7 3.7 3.7v55c0 2-1.7 3.7-3.7 3.7h-45.3l-31.3 16.2c-0.2 0.1-0.5 0.1-0.7-0.1-0.2-0.2-0.3-0.5-0.2-0.7l6.1-15.4h-12.5c-2.1 0-3.8-1.7-3.8-3.7v-55c0-2 1.7-3.7 3.8-3.7z"/>
		<path id="&lt;Path&gt;" class="s15" d="m1180.4 407.7l-32.3 16.6c-0.3 0.2-0.7 0.2-1-0.1-0.4-0.3-0.4-0.7-0.3-1.1l6.1-15.4h-12.5c-2.3 0-4.1-1.8-4.1-4.1v-56.8c0-2.2 1.8-4.1 4.1-4.1h86.6c2.3 0 4.2 1.9 4.2 4.1v56.8c0 2.3-1.9 4.1-4.2 4.1z"/>
		<path id="&lt;Path&gt;" class="s23" d="m1140.4 343h86.6c2.1 0 3.9 1.7 3.9 3.8v56.8c0 2.1-1.8 3.8-3.9 3.8h-46.7l-32.3 16.7c-0.2 0.1-0.5 0.1-0.7-0.1-0.2-0.2-0.3-0.5-0.2-0.8l6.3-15.8h-13c-2.1 0-3.8-1.7-3.8-3.8v-56.8c0-2.1 1.7-3.8 3.8-3.8z"/>
		<path id="&lt;Compound Path&gt;" fill-rule="evenodd" class="s6" d="m1187.5 386.8q0-2.9 1.2-5.5 1.3-2.6 3.9-4 2.6-1.4 6.1-1.4 5.3 0 8.3 3 3 3 3 7.9 0 5-3 8-3 3-8.3 3-3.5 0-6.1-1.4-2.6-1.5-3.9-4.1-1.2-2.6-1.2-5.5zm8 0.1q0 3.5 1.1 5.1 0.7 1 2.1 1 1.4 0 2.2-1 1.1-1.6 1.1-5.1 0-3.5-1.1-5.1-0.8-1-2.2-1-1.4 0-2.1 1-1.1 1.6-1.1 5.1zm-38-22.6q0-2.9 1.2-5.5 1.3-2.6 3.9-4 2.6-1.4 6.1-1.4 5.2 0 8.2 3 3 3 3 7.9 0 5-3 8-3 2.9-8.2 2.9-3.5 0-6.1-1.4-2.6-1.4-3.9-4-1.2-2.6-1.2-5.5zm7.9 0.1q0 3.5 1.2 5 0.7 1.1 2.1 1.1 1.4 0 2.2-1.1 1.1-1.5 1.1-5 0-3.5-1.1-5.1-0.8-1-2.2-1-1.4 0-2.1 1-1.2 1.6-1.2 5.1zm27.5-11h5.9l-24.1 44.4h-5.9z"/>
		<path id="&lt;Path&gt;" class="s18" d="m502.7 415.2h84.9c2.1 0 3.8 1.7 3.8 3.8v55.6c0 2.1-1.7 3.8-3.8 3.8h-45.8l-31.7 16.4c-0.2 0.1-0.5 0-0.7-0.1-0.2-0.2-0.3-0.5-0.2-0.8l6.2-15.5h-12.7c-2.1 0-3.8-1.7-3.8-3.8v-55.6c0-2.1 1.7-3.8 3.8-3.8z"/>
		<path id="&lt;Path&gt;" class="s15" d="m536.2 475.6l-32.6 16.8c-0.4 0.2-0.8 0.1-1.1-0.1-0.3-0.3-0.4-0.7-0.3-1.1l6.2-15.6h-12.6c-2.3 0-4.2-1.9-4.2-4.2v-57.4c0-2.3 1.9-4.2 4.2-4.2h87.6c2.3 0 4.2 1.9 4.2 4.2v57.4c0 2.3-1.9 4.2-4.2 4.2z"/>
		<path id="&lt;Path&gt;" class="s23" d="m495.8 410.1h87.6c2.2 0 3.9 1.7 3.9 3.9v57.4c0 2.1-1.7 3.9-3.9 3.9h-47.3l-32.6 16.8c-0.3 0.2-0.6 0.1-0.8-0.1-0.2-0.2-0.3-0.4-0.2-0.7l6.4-16h-13.1c-2.1 0-3.9-1.8-3.9-3.9v-57.4c0-2.2 1.8-3.9 3.9-3.9z"/>
		<path id="&lt;Path&gt;" class="s6" d="m539.6 435.1c2.1-4.2 4.2-6.3 8.3-6.3 4.6 0 8.4 3.7 8.4 8.3 0 8.4-4.9 13.7-16.7 20.3-10.6-6.4-16.6-11.9-16.6-20.3 0-4.6 3.7-8.3 8.3-8.3 4.1 0 6.2 2.1 8.3 6.3z"/>
		<path id="&lt;Path&gt;" class="s31" d="m1036.6 462.5c0 0.8-0.7 1.5-1.6 1.5-0.9 0-1.6-0.7-1.6-1.5v-14.9c0-4.6 1.9-8.8 5-11.9 3.1-3.1 7.3-5 12-5 4.6 0 8.9 1.9 11.9 5 3.1 3.1 5 7.3 5 11.9v14.9c0 0.8-0.7 1.5-1.6 1.5-0.8 0-1.5-0.7-1.5-1.5v-14.9c0-3.7-1.6-7.2-4.1-9.7-2.5-2.5-5.9-4-9.7-4-3.8 0-7.3 1.5-9.8 4-2.5 2.5-4 6-4 9.7z"/>
		<g id="&lt;Clip Group&gt;" clip-path="url(#cp16)">
			<path id="&lt;Path&gt;" class="s32" d="m1007.2 453.4h92v88.1h-92z"/>
		</g>
		<g id="&lt;Clip Group&gt;" clip-path="url(#cp17)">
			<path id="&lt;Path&gt;" class="s33" d="m1007.2 531.1h23.4v10.4h-23.4z"/>
		</g>
		<g id="&lt;Clip Group&gt;" clip-path="url(#cp18)">
			<path id="&lt;Path&gt;" class="s34" d="m1017.9 453.4h12.7v88.1h-12.7z"/>
		</g>
		<g id="&lt;Clip Group&gt;" clip-path="url(#cp19)">
			<path id="&lt;Path&gt;" class="s35" d="m1007.2 453.4h11.8v88.1h-11.8z"/>
		</g>
		<path id="&lt;Path&gt;" class="s36" d="m1075.8 464.9c-1.4 0.8-3.1 0.3-3.9-1-0.8-1.4-0.3-3.1 1.1-3.9 1.3-0.8 3.1-0.4 3.9 1 0.8 1.4 0.3 3.1-1.1 3.9z"/>
		<path id="&lt;Path&gt;" class="s36" d="m1045.1 464.9c-1.4 0.8-3.1 0.3-3.9-1-0.8-1.4-0.3-3.1 1-3.9 1.4-0.8 3.2-0.4 3.9 1 0.8 1.4 0.4 3.1-1 3.9z"/>
		<g id="&lt;Clip Group&gt;" clip-path="url(#cp20)">
			<path id="&lt;Path&gt;" class="s37" d="m1071.2 459.4h6.6v6.5h-6.6z"/>
		</g>
		<g id="&lt;Clip Group&gt;" clip-path="url(#cp21)">
			<path id="&lt;Path&gt;" class="s38" d="m1040.5 459.4h6.6v6.5h-6.6z"/>
		</g>
		<path id="&lt;Path&gt;" class="s0" d="m1045.4 462.6c0 0.9-0.7 1.6-1.6 1.6-0.9 0-1.6-0.7-1.6-1.6v-16.7c0-4.6 1.9-8.9 5-11.9 3.1-3.1 7.3-5 11.9-5 4.7 0 8.9 1.9 12 5 3.1 3 5 7.3 5 11.9v16.7c0 0.9-0.7 1.6-1.6 1.6-0.9 0-1.6-0.7-1.6-1.6v-16.7c0-3.8-1.5-7.2-4-9.7-2.5-2.5-6-4.1-9.8-4.1-3.7 0-7.2 1.6-9.7 4.1-2.5 2.5-4 5.9-4 9.7z"/>
		<path id="&lt;Path&gt;" class="s0" d="m1296.2 870.9c0 4.4-61.5 8-137.3 8-75.8 0-137.3-3.6-137.3-8 0-4.5 61.5-8.1 137.3-8.1 75.8 0 137.3 3.6 137.3 8.1z"/>
		<g id="&lt;Clip Group&gt;" clip-path="url(#cp22)">
			<path id="&lt;Path&gt;" class="s39" d="m1040.8 419.6h91.2v131.6h-91.2z"/>
		</g>
		<g id="&lt;Clip Group&gt;" clip-path="url(#cp23)">
			<path id="&lt;Path&gt;" class="s40" d="m1060.5 455.1h78.1v106.3h-78.1z"/>
		</g>
		<path id="&lt;Path&gt;" class="s41" d="m1095.7 512.6c5.2 9.4 21.2 27.6 35.3 42.8-6.3 2.6-16 1-22.5-6.7-8.6-9.5-15.5-24.1-19.8-34.7-5.8-6.4-25.1-39.2-28.2-50 0.9-1.2 2.4-2.6 4.1-3.8 10.2 19.9 31.1 52.4 31.1 52.4z"/>
		<path id="&lt;Path&gt;" class="s42" d="m1269.1 699.5c0 0 11.8 0.4 15.2 1.4 0.9 0.3 1.6 0.8 2.3 1.4 0.7 0.7 6.8 2.5 10.1 3.2 1.4 0.4 0.7 1.3 0.8 1.6 0.6 1-7.6 0.2-7.6 0.2 0 0-2.6 0.3 14.7 8.8 0 0 8.1 0.5 9.1 14.3 0 0 2.5 6.9-2.8 11.2 0 0-3 1.6-7.6-1.3 0 0-7.4-9.1-18.8-11.5 0 0-6.2-2-12.1-8.4 0 0-5.1-2.8-5.5-4.7 6.6-9.9 0.1-14.4 2.2-16.2z"/>
		<path id="&lt;Path&gt;" class="s42" d="m1146.7 839.8c0 0 2.6 11.6 0.7 14.7-0.7 1.2-0.1 8.5-0.7 12-0.2 1.6-1.5 1.1-1.9 1.4-0.8 0.6-2.5-8.6-2.5-8.6 0 0-2.2-3.4-12.1 12.9 0 0-1.2 7.9-14.9 7.8 0 0-7 1.7-10.7-3.8 0 0-1.4-3.2 1.9-7.4 0 0 9.6-6.5 13-17.6 0 0 2.5-5.9 9.4-11.2 0 0 4.9-2.8 6.5-1.1 1.6 1.7 11.3 0.9 11.3 0.9z"/>
		<g id="&lt;Clip Group&gt;" clip-path="url(#cp24)">
			<path id="&lt;Path&gt;" class="s43" d="m1107.2 636.6h60v207.9h-60z"/>
		</g>
		<path id="&lt;Path&gt;" class="s14" d="m1134.6 786.2c-0.4-14.7-4.7-35.2-4.7-35.2 0-8.1 9.8-78.4 6.5-114.4h30.8l-13.8 67.1c-1.1 2.2-12.8 39.6-9.2 53.1 7.9 29-5.5 49.8 5.2 82.7 0.8 2.4-4.8 2.9-10.8 2.8-4.2-18.7-4-56.1-4-56.1z"/>
		<g id="&lt;Clip Group&gt;" clip-path="url(#cp25)">
			<path id="&lt;Path&gt;" class="s44" d="m1117 626.7h154.4v206.9h-154.4z"/>
		</g>
		<path id="&lt;Path&gt;" class="s14" d="m1179.4 626.7c23.3 31.5 0.5 58.2 14.9 117 0.7 3.1 1.9 10.3 3.3 7.3 7.9-17.3 58.6-46.2 72.6-52.7-0.2 2-0.2 5.2 0 8.8-28.2 13.6-59.8 37.2-75.5 55-12.5-16.5-17.5-76.3-17.5-76.3-1.7-20.6-10.2-41.2-18.4-56.8z"/>
		<g id="&lt;Clip Group&gt;" clip-path="url(#cp26)">
			<path id="&lt;Path&gt;" class="s45" d="m1094.8 518.2h93v133.2h-93z"/>
		</g>
		<path id="&lt;Path&gt;" class="s41" d="m1169.9 609.9c6.8-29-3.3-63.4-3.3-63.4l-4.2-27c4.9 0.4 21 12.5 24.2 18.2 0.5 17.3-8.7 50.3-5.4 81.2 1.4 12.4 6.6 14.2 0.4 22.8-7 9.7-30.5 5.6-30.5 5.6-9.1-0.8-25.4-0.4-35.5-4 57.1-3.1 53-26.4 54.3-33.4z"/>
		<g id="&lt;Clip Group&gt;" clip-path="url(#cp27)">
			<path id="&lt;Path&gt;" class="s46" d="m1124.5 500.2h37.7v42.6h-37.7z"/>
		</g>
		<g id="&lt;Clip Group&gt;" clip-path="url(#cp28)">
			<path id="&lt;Path&gt;" class="s47" d="m1158.7 419.1h95.8v131.2h-95.8z"/>
		</g>
		<g id="&lt;Clip Group&gt;" clip-path="url(#cp29)">
			<path id="&lt;Path&gt;" class="s48" d="m1159.9 449.2h71.4v110.4h-71.4z"/>
		</g>
		<path id="&lt;Path&gt;" class="s41" d="m1227.5 454.2c1.6 1 2.9 2.1 3.8 3.1-2.4 11-19.2 45.1-24.6 51.9-3.6 10.8-11.4 26.9-19.3 37-7.7 10.7-20.6 10.6-25.2 4.1 17-3.4 22.7-17.6 22.7-17.6 5.9-8.3 26.4-47.3 42.6-78.5z"/>
		<g id="&lt;Clip Group&gt;" clip-path="url(#cp30)">
			<path id="&lt;Path&gt;" class="s49" d="m1112.9 457h56.8v70.3h-56.8z"/>
		</g>
		<g id="&lt;Clip Group&gt;" clip-path="url(#cp31)">
			<path id="&lt;Path&gt;" class="s50" d="m1098.1 442.7h79.9v99.5h-79.9z"/>
		</g>
		<path id="&lt;Compound Path&gt;" class="s51" d="m1247.4 429.3q1.1 0.8 2.1 1.8c3 3 4.9 7.2 4.9 11.9v14.7c0 0.9-0.7 1.6-1.5 1.6-0.9 0-1.6-0.7-1.6-1.6v-14.7c0-3-1-5.7-2.6-8 1.3-1.8 1.5-3.4-0.3-4.8l-1-0.9zm-23.6 28.5c0 0.8-0.7 1.5-1.6 1.5-0.8 0-1.5-0.7-1.5-1.5v-14.8c0-4.6 1.9-8.9 4.9-11.9q0.6-0.6 1.2-1.1 0.3 0.2 0.7 0.4c0 0-0.2 1.1-0.3 3.5-2.1 2.4-3.4 5.6-3.4 9.1z"/>
		<g id="&lt;Clip Group&gt;" clip-path="url(#cp32)">
			<path id="&lt;Path&gt;" class="s52" d="m1194.5 448.7h91.8v87.8h-91.8z"/>
		</g>
		<g id="&lt;Clip Group&gt;" clip-path="url(#cp33)">
			<path id="&lt;Path&gt;" class="s53" d="m1194.5 526.2h23.3v10.3h-23.3z"/>
		</g>
		<g id="&lt;Clip Group&gt;" clip-path="url(#cp34)">
			<path id="&lt;Path&gt;" class="s54" d="m1205.2 448.7h12.6v87.8h-12.6z"/>
		</g>
		<g id="&lt;Clip Group&gt;" clip-path="url(#cp35)">
			<path id="&lt;Path&gt;" class="s55" d="m1194.5 448.7h11.8v87.8h-11.8z"/>
		</g>
		<g id="&lt;Clip Group&gt;" clip-path="url(#cp36)">
			<path id="&lt;Path&gt;" class="s56" d="m1258.2 454.5h6.6v6.5h-6.6z"/>
		</g>
		<g id="&lt;Clip Group&gt;" clip-path="url(#cp37)">
			<path id="&lt;Path&gt;" class="s57" d="m1227.6 454.5h6.5v6.5h-6.5z"/>
		</g>
		<g id="&lt;Clip Group&gt;" clip-path="url(#cp38)">
			<path id="&lt;Path&gt;" class="s58" d="m1258.3 454.7h6.6v6.5h-6.6z"/>
		</g>
		<g id="&lt;Clip Group&gt;" clip-path="url(#cp39)">
			<path id="&lt;Path&gt;" class="s59" d="m1227.7 454.7h6.5v6.5h-6.5z"/>
		</g>
		<path id="&lt;Compound Path&gt;" class="s60" d="m1249.7 432.4c2.5 2.6 4.9 6.2 7 10.8l6.2 13.9c0.4 0.8 0 1.7-0.8 2.1-0.8 0.3-1.7 0-2-0.8l-6.3-13.9c-1.7-3.8-3.5-6.7-5.4-9 0.8-1.1 1.4-2.1 1.3-3.1zm-26.2 7.8c-1.1-3.4 0.4-7.2 3.4-10l0.1-0.1q0.2 0.2 0.5 0.3c0 0-0.2 1.4-0.3 4.4-0.9 1.4-1.2 3-0.7 4.5l5.6 18c0.3 0.8-0.2 1.7-1 1.9-0.8 0.3-1.7-0.2-2-1z"/>
		<path id="&lt;Path&gt;" class="s61" d="m680.7 184.5v38.5c0 18.4-14.9 33.5-33.2 33.5-18.2 0-33.1-15.1-33.1-33.5v-38.5z"/>
		<path id="&lt;Path&gt;" class="s15" d="m747 184.5v38.5c0 18.4-14.9 33.5-33.1 33.5-18.3 0-33.2-15.1-33.2-33.5v-38.5z"/>
		<path id="&lt;Path&gt;" class="s61" d="m813.3 184.5v38.5c0 18.4-14.9 33.5-33.1 33.5-18.3 0-33.2-15.1-33.2-33.5v-38.5z"/>
		<path id="&lt;Path&gt;" class="s15" d="m879.7 184.5v38.5c0 18.4-14.9 33.5-33.2 33.5-18.2 0-33.2-15.1-33.2-33.5v-38.5z"/>
		<path id="&lt;Path&gt;" class="s61" d="m946 184.5v38.5c0 18.4-14.9 33.5-33.2 33.5-18.2 0-33.1-15.1-33.1-33.5v-38.5z"/>
		<path id="&lt;Path&gt;" class="s15" d="m1012.3 184.5v38.5c0 18.4-14.9 33.5-33.1 33.5-18.3 0-33.2-15.1-33.2-33.5v-38.5z"/>
		<path id="&lt;Path&gt;" class="s61" d="m1078.7 184.5v38.5c0 18.4-15 33.5-33.2 33.5-18.2 0-33.2-15.1-33.2-33.5v-38.5z"/>
		<path id="&lt;Path&gt;" class="s62" d="m718 165l-37.3 19.5h-66.3l46.7-19.5z"/>
		<path id="&lt;Path&gt;" class="s6" d="m772.6 165l-25.6 19.5h-66.3l37.3-19.5z"/>
		<path id="&lt;Path&gt;" class="s62" d="m826.1 165l-12.8 19.5h-66.3l25.6-19.5z"/>
		<path id="&lt;Path&gt;" class="s62" d="m1031.9 165l46.8 19.5h-66.4l-37.3-19.5z"/>
		<path id="&lt;Path&gt;" class="s6" d="m975 165l37.3 19.5h-66.3l-25.6-19.5z"/>
		<path id="&lt;Path&gt;" class="s62" d="m920.4 165l25.6 19.5h-66.3l-12.8-19.5z"/>
		<path id="&lt;Path&gt;" class="s6" d="m866.9 165l12.8 19.5h-66.4l12.8-19.5z"/>
		<g id="&lt;Clip Group&gt;" clip-path="url(#cp40)">
			<path id="&lt;Path&gt;" class="s63" d="m301.2 425.8h128.8v164h-128.8z"/>
		</g>
		<path id="&lt;Path&gt;" class="s64" d="m660.3 650.4v-26.9l42.9-2 38.8 2v26.9l-38.5 4.1z"/>
		<path id="&lt;Path&gt;" class="s62" d="m703.2 651l36.1-2v41.5l-36.1 5.1z"/>
		<path id="&lt;Path&gt;" class="s65" d="m663.3 649l39.9 2v44.6l-39.9-5.1z"/>
		<path id="&lt;Path&gt;" class="s66" d="m679.5 692.6v-41.5h6v42.3z"/>
		<path id="&lt;Path&gt;" class="s67" d="m719 693.4v-42.3h5.9v41.4z"/>
		<path id="&lt;Path&gt;" class="s68" d="m703.2 654.5l36.1-3.8v2.8z"/>
		<path id="&lt;Path&gt;" class="s41" d="m719 654.1v-1.3l5.9-0.6v1.7z"/>
		<path id="&lt;Path&gt;" class="s66" d="m721.6 622.4l-36.6 3.5-6.5-0.6 37.4-3.2z"/>
		<path id="&lt;Path&gt;" class="s66" d="m687.9 622.2l37.8 3-6.3 0.7-37.6-3.4z"/>
		<path id="&lt;Path&gt;" class="s62" d="m703.2 627.6l38.8-4.1v26.9l-38.8 4.1z"/>
		<path id="&lt;Path&gt;" class="s65" d="m660.3 623.5l42.9 4.1v26.9l-42.9-4.1z"/>
		<path id="&lt;Path&gt;" class="s66" d="m685 625.9v26.8l-6.5-0.6v-26.8z"/>
		<path id="&lt;Path&gt;" class="s67" d="m725.7 625.2v26.9l-6.3 0.7v-26.9z"/>
		<path id="&lt;Path&gt;" class="s69" d="m525.9 666.7l-7.5-34.5 57.7-15.4 53.2-8.9 7.6 34.5-51.1 16.7z"/>
		<path id="&lt;Path&gt;" class="s70" d="m584.4 654.7l48.5-13.3 11.6 53.3-47.5 17.3z"/>
		<path id="&lt;Path&gt;" class="s7" d="m529.5 664l54.9-9.3 12.6 57.3-55.8 5.3z"/>
		<path id="&lt;Path&gt;" class="s71" d="m563.8 715.2l-11.6-53.3 8.2-1.8 11.8 54.3z"/>
		<path id="&lt;Path&gt;" class="s72" d="m617.8 704.4l-11.9-54.3 8-1.8 11.7 53.3z"/>
		<path id="&lt;Path&gt;" class="s20" d="m585.3 659.2l48-15.7 0.8 3.7z"/>
		<path id="&lt;Path&gt;" class="s25" d="m606.7 653.9l-0.3-1.6 7.8-2.6 0.5 2.3z"/>
		<path id="&lt;Path&gt;" class="s71" d="m601.4 612.6l-48.8 15.3-9 1.1 49.9-15.1z"/>
		<path id="&lt;Path&gt;" class="s71" d="m555.5 622.3l52.2-7.3-8.4 2.7-52.1 6.8z"/>
		<path id="&lt;Path&gt;" class="s70" d="m577.8 624.7l51.5-16.8 7.6 34.5-51.5 16.8z"/>
		<path id="&lt;Path&gt;" class="s7" d="m518.4 632.2l59.4-7.5 7.6 34.5-59.5 7.5z"/>
		<path id="&lt;Path&gt;" class="s71" d="m552.6 627.9l7.5 34.5-8.9 1.1-7.6-34.5z"/>
		<path id="&lt;Path&gt;" class="s72" d="m607.7 615l7.6 34.4-8.5 2.8-7.5-34.5z"/>
		<path id="&lt;Path&gt;" class="s0" d="m554.8 872.2c0 3.1-55.4 5.6-123.8 5.6-68.4 0-123.8-2.5-123.8-5.6 0-3.1 55.4-5.6 123.8-5.6 68.4 0 123.8 2.5 123.8 5.6z"/>
		<path id="&lt;Path&gt;" class="s20" d="m352.5 835.3c2.2-1.5 7.1 2.6 7.1 2.6 6.5 7.3 8.1 14.4 8.1 14.4 1.1 10.3 10.1 11.8 14.1 11.9 4.3 0.2 4.2 6.8 2.9 8.7-6.1 2.3-24 2.7-30.7-1.8-7.6-20.2-13.4-14.5-13.4-14.5 0 0-1.9 10.7-2.8 9.8-0.3-0.3-1.8 0.4-1.8-1.3 0.1-4.1 0.5-13.4-0.1-14.9-1.5-3.9 5.3-18.5 5.3-18.5 0 0 9.2 5.2 11.3 3.6z"/>
		<g id="&lt;Clip Group&gt;" clip-path="url(#cp41)">
			<path id="&lt;Path&gt;" class="s73" d="m336.9 629.8h91.6v207.9h-91.6z"/>
		</g>
		<path id="&lt;Path&gt;" class="s31" d="m428.5 639.2l-14.5 106.2c-8.6 21-38.4 56.3-55.1 91.7-3.8 0.2-7.8 0-11.3-0.7 10.3-24.8 55.8-93.9 55.8-93.9 5.9-11.4 1.8-72.7-1.1-108.7z"/>
		<path id="&lt;Path&gt;" class="s20" d="m454.6 839.6c0.8-2.5 6.3-0.8 6.3-0.8 9.5 2 13.3 6.9 13.3 6.9 9 10.6 20.7 11.2 24.6 11.3 5.4 2.6 5.5 6.6 5.5 6.6-2.3 9.8-20.7 12.4-29.1 8.8-17.9-14.5-18.6-7.3-18.6-7.3 0 0 2.7 10.2 1.5 10-0.4-0.1-1.6 1-2.5-0.5-2.4-3.4-5.3-11.1-6.6-12-3.5-2.2-6.4-20.8-6.4-20.8 0 0 11.2 0.3 12-2.2z"/>
		<g id="&lt;Clip Group&gt;" clip-path="url(#cp42)">
			<path id="&lt;Path&gt;" class="s74" d="m383.7 630.5h80.6v215.9h-80.6z"/>
		</g>
		<path id="&lt;Path&gt;" class="s31" d="m464.3 839.9c0 0-4.1 1-9.1 1.9-16.9-95.3-7.9-115.1-7.9-115.1-2.9-39.7-19.8-72.6-30.9-90.5l22.5 5.7c10.8 19.5 18.2 69.9 17.1 98.5-0.5 13.9 2.2 65.4 8.3 99.5z"/>
		<path id="&lt;Path&gt;" class="s31" d="m683.4 654.3c0-4.8-2-9.2-5.2-12.4-3.2-3.2-7.6-5.2-12.4-5.2-4.9 0-9.3 2-12.5 5.2-3.2 3.2-5.2 7.6-5.2 12.4v19c0 1.1-0.9 2-2 2-1.1 0-2-0.9-2-2v-19c0-5.9 2.5-11.4 6.4-15.3 3.9-3.9 9.3-6.3 15.3-6.3 5.9 0 11.4 2.4 15.3 6.3 3.9 3.9 6.3 9.4 6.3 15.3v19c0 1.1-0.9 2-2 2-1.1 0-2-0.9-2-2z"/>
		<g id="&lt;Clip Group&gt;" clip-path="url(#cp43)">
			<path id="&lt;Path&gt;" class="s75" d="m603.3 661.6h117.7v112.8h-117.7z"/>
		</g>
		<g id="&lt;Clip Group&gt;" clip-path="url(#cp44)">
			<path id="&lt;Path&gt;" class="s76" d="m691.1 761.2h29.9v13.2h-29.9z"/>
		</g>
		<g id="&lt;Clip Group&gt;" clip-path="url(#cp45)">
			<path id="&lt;Path&gt;" class="s77" d="m691.1 661.6h16.2v112.8h-16.2z"/>
		</g>
		<g id="&lt;Clip Group&gt;" clip-path="url(#cp46)">
			<path id="&lt;Path&gt;" class="s78" d="m705.9 661.6h15.1v112.8h-15.1z"/>
		</g>
		<path id="&lt;Path&gt;" class="s36" d="m631.9 671.4c1-1.7 3.2-2.3 5-1.3 1.7 1 2.3 3.2 1.3 5-1 1.7-3.2 2.3-5 1.3-1.7-1-2.3-3.2-1.3-5z"/>
		<path id="&lt;Path&gt;" class="s36" d="m671.2 671.4c1-1.7 3.2-2.3 5-1.3 1.7 1 2.3 3.2 1.3 5-1 1.7-3.2 2.3-5 1.3-1.7-1-2.3-3.2-1.3-5z"/>
		<g id="&lt;Clip Group&gt;" clip-path="url(#cp47)">
			<path id="&lt;Path&gt;" class="s79" d="m630.7 669.3h8.4v8.4h-8.4z"/>
		</g>
		<g id="&lt;Clip Group&gt;" clip-path="url(#cp48)">
			<path id="&lt;Path&gt;" class="s80" d="m670 669.3h8.4v8.4h-8.4z"/>
		</g>
		<path id="&lt;Path&gt;" class="s0" d="m672.2 652.1c0-4.8-2-9.2-5.2-12.4-3.2-3.2-7.6-5.2-12.5-5.2-4.8 0-9.2 2-12.4 5.2-3.2 3.2-5.2 7.6-5.2 12.4v21.3c0 1.2-0.9 2.1-2 2.1-1.1 0-2-0.9-2-2.1v-21.3c0-5.9 2.4-11.3 6.3-15.3 4-3.9 9.4-6.3 15.3-6.3 6 0 11.4 2.4 15.3 6.3 4 4 6.4 9.4 6.4 15.3v21.3c0 1.2-0.9 2.1-2 2.1-1.1 0-2-0.9-2-2.1z"/>
		<g id="&lt;Clip Group&gt;" clip-path="url(#cp49)">
			<path id="&lt;Path&gt;" class="s81" d="m559.4 691.5h88.4v84.6h-88.4z"/>
		</g>
		<g id="&lt;Clip Group&gt;" clip-path="url(#cp50)">
			<path id="&lt;Path&gt;" class="s82" d="m625.3 766.2h22.5v9.9h-22.5z"/>
		</g>
		<g id="&lt;Clip Group&gt;" clip-path="url(#cp51)">
			<path id="&lt;Path&gt;" class="s83" d="m625.3 691.5h12.1v84.6h-12.1z"/>
		</g>
		<g id="&lt;Clip Group&gt;" clip-path="url(#cp52)">
			<path id="&lt;Path&gt;" class="s84" d="m636.4 691.5h11.4v84.6h-11.4z"/>
		</g>
		<path id="&lt;Path&gt;" class="s85" d="m579.1 702.4c0.9-1.6 2.9-2.2 4.4-1.2 1.6 0.9 2.1 2.9 1.2 4.4-0.9 1.6-2.9 2.1-4.4 1.2-1.6-0.9-2.2-2.9-1.2-4.4z"/>
		<path id="&lt;Path&gt;" class="s85" d="m614.2 702.4c0.9-1.6 3-2.2 4.5-1.2 1.6 0.9 2.1 2.9 1.2 4.4-0.9 1.6-2.9 2.1-4.5 1.2-1.5-0.9-2.1-2.9-1.2-4.4z"/>
		<g id="&lt;Clip Group&gt;" clip-path="url(#cp53)">
			<path id="&lt;Path&gt;" class="s86" d="m578 700.5h7.5v7.5h-7.5z"/>
		</g>
		<g id="&lt;Clip Group&gt;" clip-path="url(#cp54)">
			<path id="&lt;Path&gt;" class="s87" d="m613.2 700.5h7.5v7.5h-7.5z"/>
		</g>
		<path id="&lt;Path&gt;" class="s60" d="m615.2 704.4c0-1 0.8-1.8 1.7-1.8 1 0 1.8 0.8 1.8 1.8v8.6c0 5.3-2.1 10.1-5.7 13.7-3.5 3.5-8.3 5.6-13.6 5.6-5.4 0-10.2-2.1-13.7-5.6-3.6-3.6-5.7-8.4-5.7-13.7v-8.6c0-1 0.8-1.8 1.8-1.8 0.9 0 1.8 0.8 1.8 1.8v8.6c0 4.3 1.7 8.3 4.6 11.1 2.9 2.9 6.8 4.7 11.2 4.7 4.3 0 8.2-1.8 11.1-4.7 2.9-2.8 4.7-6.8 4.7-11.1z"/>
		<path id="&lt;Path&gt;" class="s0" d="m746.3 872.2c0 3.1-55.5 5.6-123.8 5.6-68.4 0-123.8-2.5-123.8-5.6 0-3.1 55.4-5.6 123.8-5.6 68.3 0 123.8 2.5 123.8 5.6z"/>
		<g id="&lt;Clip Group&gt;" clip-path="url(#cp55)">
			<path id="&lt;Path&gt;" class="s88" d="m658.9 832.1h44.7v44.7h-44.7z"/>
		</g>
		<g id="&lt;Clip Group&gt;" clip-path="url(#cp56)">
			<path id="&lt;Path&gt;" class="s89" d="m665.7 838.9h31.2v31.2h-31.2z"/>
		</g>
		<g id="&lt;Clip Group&gt;" clip-path="url(#cp57)">
			<path id="&lt;Path&gt;" class="s90" d="m666.4 839.6h29.8v29.8h-29.8z"/>
		</g>
		<g id="&lt;Clip Group&gt;" clip-path="url(#cp58)">
			<path id="&lt;Path&gt;" class="s91" d="m667.4 830.2h27.8v29.9h-27.8z"/>
		</g>
		<g id="&lt;Clip Group&gt;" clip-path="url(#cp59)">
			<path id="&lt;Path&gt;" class="s92" d="m676.9 850.2h8.7v8.6h-8.7z"/>
		</g>
		<g id="&lt;Clip Group&gt;" clip-path="url(#cp60)">
			<path id="&lt;Path&gt;" class="s93" d="m535.6 832.1h44.7v44.7h-44.7z"/>
		</g>
		<g id="&lt;Clip Group&gt;" clip-path="url(#cp61)">
			<path id="&lt;Path&gt;" class="s94" d="m542.4 838.9h31.1v31.2h-31.1z"/>
		</g>
		<g id="&lt;Clip Group&gt;" clip-path="url(#cp62)">
			<path id="&lt;Path&gt;" class="s95" d="m543 839.6h29.8v29.8h-29.8z"/>
		</g>
		<g id="&lt;Clip Group&gt;" clip-path="url(#cp63)">
			<path id="&lt;Path&gt;" class="s96" d="m544 830.2h27.8v29.9h-27.8z"/>
		</g>
		<g id="&lt;Clip Group&gt;" clip-path="url(#cp64)">
			<path id="&lt;Path&gt;" class="s97" d="m553.6 850.2h8.7v8.6h-8.7z"/>
		</g>
		<g id="&lt;Clip Group&gt;" clip-path="url(#cp65)">
			<path id="&lt;Path&gt;" class="s98" d="m527.8 779.1h200.1v54.4h-200.1z"/>
		</g>
		<path id="&lt;Compound Path&gt;" fill-rule="evenodd" class="s20" d="m507.7 617.5c1.5 0.3 2.7 1.4 3.1 2.8l10.9 31.7h229.6c2.2 0 4 1.8 4 4q0 0.7-0.2 1.3l-28.9 119.7c-0.4 1.8-2.1 3.1-3.9 3.1h-161.9c-1.8 0-3.4-1.2-3.8-2.9l-28.7-83.1-24-69.3-27.4-6c-2.1-0.5-3.5-2.6-3.1-4.7 0.5-2.2 2.6-3.5 4.7-3.1zm167.1 118.5l4.9-39.9h-24.6l-1.5 39.9zm-27.2 0l1.5-39.9h-24.6l1.8 39.9zm-27.2 0l-1.8-39.9h-23.9l5.8 39.9zm-26 0l-5.7-39.9h-24.5l11.1 39.9zm91.9-45.9h25l6.2-30.1h-27.5zm-31.1 0h25.1l3.6-30.1h-27.5zm-31.1 0h25.1l1.2-30.1h-27.6zm-30.5 0h24.5l-1.3-30.1h-27.5zm-31.3 0h25.3l-4.4-30.1h-29.2zm-6.2 0l-8.3-30.1h-23.5l10.4 30.1zm12.7 45.9l-11.1-40h-21l13.7 40zm1.7 6h-18l10.4 30.1h15.9zm24.6 0h-18.4l8.3 30.1h14.4zm25.3 0h-19.3l4.4 30.1h16.3zm26.7 0h-20.8l1.4 30.1h18.3zm26.7 0h-20.8l-1.1 30.1h18.2zm26.7 0h-20.7l-3.6 30.1h18.2zm6.1 0l-6.2 30.1h18.5l7.3-30.1zm9.3-45.9l-8.1 39.9h19.8l9.6-39.9zm-14.2 39.9l8.1-39.9h-24.5l-4.8 39.9zm21.6-76l-6.1 30.1h21.5l7.2-30.1z"/>
		<g id="&lt;Clip Group&gt;" clip-path="url(#cp66)">
			<path id="&lt;Path&gt;" class="s99" d="m461.8 605.5h43.2v20.9h-43.2z"/>
		</g>
		<g id="&lt;Clip Group&gt;" clip-path="url(#cp67)">
			<path id="&lt;Path&gt;" class="s100" d="m488.9 511.5h15.2v45.5h-15.2z"/>
		</g>
		<g id="&lt;Clip Group&gt;" clip-path="url(#cp68)">
			<path id="&lt;Path&gt;" class="s101" d="m488.6 511.8h11.6v45.3h-11.6z"/>
		</g>
		<g id="&lt;Clip Group&gt;" clip-path="url(#cp69)">
			<path id="&lt;Path&gt;" class="s102" d="m395.1 532.1h108.6v69.8h-108.6z"/>
		</g>
		<g id="&lt;Clip Group&gt;" clip-path="url(#cp70)">
			<path id="&lt;Path&gt;" class="s103" d="m369.4 505.7h82.5v157.1h-82.5z"/>
		</g>
		<path id="&lt;Path&gt;" class="s104" d="m436.7 624.7q0.2 0.2 0.3 0.4 0.1 0.2 0.2 0.3 0 0.2 0.1 0.3 0.2 0.3 0.3 0.6c3 5.8 3.4 11.4 1.4 17.5-8.6 6.2-18.2 9.3-27.2 10.8-17.7 2.7-32.2-1.7-32.2-1.7-2.1-2.2-4.2-4.8-5.2-7.7 15.5 0.7 27.4-3.3 41.4-12-15.7 3.8-30.8 1.7-30.8 1.7 80-20.6-5.6-58.5-2.9-92.5 1.4-6.6 2.3-14.8 9.7-16 5.6-0.9 10.2 2.9 13.4 7.2 5.5 7.5 8.8 18.5 10.9 27.5 0.9 1.8 1.7 3.8 2.5 5.6 3.1 7.4 5.4 16.7 14.4 19.9-2.3 15.4-3.7 25.1 3.7 38.1z"/>
		<g id="&lt;Clip Group&gt;" clip-path="url(#cp71)">
			<path id="&lt;Path&gt;" class="s105" d="m399.9 560.3h102.9v65.1h-102.9z"/>
		</g>
		<g id="&lt;Clip Group&gt;" clip-path="url(#cp72)">
			<path id="&lt;Path&gt;" class="s106" d="m369.7 496.3h53.2v82.2h-53.2z"/>
		</g>
		<g id="&lt;Clip Group&gt;" clip-path="url(#cp73)">
			<path id="&lt;Path&gt;" class="s107" d="m399.3 441.6h27.7v26.4h-27.7z"/>
		</g>
		<g id="&lt;Clip Group&gt;" clip-path="url(#cp74)">
			<path id="&lt;Path&gt;" class="s108" d="m399.7 442.9h32.4v28.8h-32.4z"/>
		</g>
		<g id="&lt;Clip Group&gt;" clip-path="url(#cp75)">
			<path id="&lt;Path&gt;" class="s109" d="m395.2 490.8h31.2v46.4h-31.2z"/>
		</g>
		<g id="&lt;Clip Group&gt;" clip-path="url(#cp76)">
			<path id="&lt;Path&gt;" class="s110" d="m393.5 449.6h56.5v70.4h-56.5z"/>
		</g>
		<g id="&lt;Clip Group&gt;" clip-path="url(#cp77)">
			<path id="&lt;Path&gt;" class="s111" d="m391.3 429.8h69.8v63.2h-69.8z"/>
		</g>
	</g>
</svg>