<svg version="1.2" xmlns="http://www.w3.org/2000/svg" viewBox="0 0 1643 976" width="1643" height="976">
	<title>reshot-illustration-car-insurance-XMFK5T6AGL-ai</title>
	<style>
		.s0 { fill: #f2f8fc } 
		.s1 { fill: #50b58c } 
		.s2 { fill: #ffffff } 
		.s3 { fill: #1e3851 } 
		.s4 { fill: #50a4fe } 
		.s5 { fill: #d5e1e2 } 
		.s6 { fill: #a5b4b5 } 
		.s7 { fill: #104d84 } 
		.s8 { fill: #aed1e5 } 
		.s9 { fill: #ddeaf8 } 
		.s10 { fill: #f44e4e } 
		.s11 { fill: #73c5fe } 
		.s12 { fill: #c5d9ea } 
		.s13 { fill: #7e60ea } 
		.s14 { fill: #6853d3 } 
		.s15 { fill: #ffd3ab } 
		.s16 { fill: #ffb469 } 
		.s17 { fill: #446477 } 
		.s18 { fill: #243e51 } 
		.s19 { fill: #ff813b } 
		.s20 { fill: #ffa083 } 
		.s21 { fill: #c678ef } 
	</style>
	<g id="OBJECTS">
		<g id="&lt;Group&gt;">
			<g id="&lt;Group&gt;">
				<path id="&lt;Path&gt;" class="s0" d="m547.1 256.3l277-110.7 277 110.7c-25 255.3-110.1 441.9-277 534.7-166.9-92.8-252-279.4-277-534.7z"/>
			</g>
			<g id="&lt;Group&gt;">
				<path id="&lt;Path&gt;" class="s1" d="m1226.8 791c0 0-94.1-60-63.1-99.3 31-39.4 45.3 14 79.8 99.3z"/>
				<path id="&lt;Path&gt;" class="s1" d="m1227.3 791c0 0-7.4-131.2-7.4-147.5 0-16.3 22.3-20.5 42.8-7.8 20.5 12.6-27.7 155.3-27.7 155.3z"/>
				<path id="&lt;Path&gt;" class="s1" d="m1235 791c0 0 28.9-114.3 81.9-88.4 53.1 25.9-69.3 88.4-69.3 88.4z"/>
				<g id="&lt;Group&gt;">
					<path id="&lt;Path&gt;" class="s2" d="m1243.3 668l-3.8 67.7 5.1-7.9c0.4-0.7 1.3-0.9 1.9-0.4 0.7 0.4 0.9 1.2 0.5 1.9l-7.8 12-2.8 49.8c-0.1 0.8-0.7 1.4-1.4 1.4q-0.1 0-0.1-0.1c-0.8 0-1.4-0.7-1.3-1.4l4.5-81.1-10.2-22.1c-0.3-0.7 0-1.5 0.7-1.8 0.7-0.4 1.6-0.1 1.9 0.6l8 17.4 3.2-56.5c0-0.8 0.7-1.3 1.4-1.3 0.8 0 1.4 0.7 1.4 1.5l-1 16.4 14.9-12.8c0.6-0.6 1.5-0.5 2 0.1 0.5 0.6 0.5 1.5-0.1 2z"/>
				</g>
				<g id="&lt;Group&gt;">
					<path id="&lt;Path&gt;" class="s2" d="m1320.4 724.8c0.1 0.8-0.4 1.4-1.2 1.5l-26.9 2.7c-13.1 12-25.7 25.7-35.6 37.3l23.2-3.9c0.8-0.1 1.5 0.4 1.6 1.1 0.2 0.8-0.3 1.5-1.1 1.7l-26.5 4.5c-10.7 12.6-17.6 22-17.8 22.2-0.3 0.3-0.7 0.6-1.1 0.6q-0.1 0-0.1-0.1c-0.5 0-0.9-0.2-1.1-0.7-0.2-0.3-12.4-21.9-27.2-45.4l-22.1-1.9c-0.8-0.1-1.4-0.7-1.3-1.5 0-0.8 0.7-1.4 1.5-1.3l20 1.7c-8.5-13.6-17.8-27.6-26.1-38.3-0.4-0.6-0.3-1.5 0.3-2 0.6-0.5 1.5-0.4 2 0.3 3.3 4.3 6.7 9.1 10.2 14.2l1.4-16.8c0.1-0.8 0.8-1.4 1.5-1.3 0.8 0.1 1.4 0.7 1.3 1.5l-1.6 20.3c8.4 12.4 16.9 26.1 24.2 38l0.6-10.5c0-0.8 0.7-1.4 1.5-1.4 0.8 0.1 1.4 0.7 1.3 1.5l-0.9 14.6c7.1 11.8 12.5 21.2 14.7 25.1 2.6-3.3 8.6-11.2 16.8-20.9q0.1-0.1 0.1-0.1c6.2-7.3 13.6-15.7 21.6-24.1v-24.1c0-0.8 0.7-1.4 1.4-1.4q0 0 0 0c0.8 0 1.4 0.6 1.4 1.4v21.2c9.3-9.5 19.3-18.8 29.1-26.2 0.7-0.5 1.5-0.3 2 0.3 0.5 0.6 0.3 1.5-0.3 1.9-3.8 2.9-7.6 6-11.3 9.4l23-2.4c0.8-0.1 1.5 0.5 1.5 1.3z"/>
				</g>
			</g>
			<g id="&lt;Group&gt;">
				<g id="&lt;Group&gt;">
					<path id="&lt;Path&gt;" class="s3" d="m426.5 790.4c-51.2 0-92.6-41.5-92.6-92.6 0-51.2 41.4-92.6 92.6-92.6 51.1 0 92.6 41.4 92.6 92.6 0 51.1-41.5 92.6-92.6 92.6z"/>
				</g>
				<g id="&lt;Group&gt;">
					<path id="&lt;Path&gt;" class="s3" d="m801 790.4c-51.2 0-92.6-41.5-92.6-92.6 0-51.2 41.4-92.6 92.6-92.6 51.1 0 92.6 41.4 92.6 92.6 0 51.1-41.5 92.6-92.6 92.6z"/>
				</g>
				<g id="&lt;Group&gt;">
					<path id="&lt;Path&gt;" class="s4" d="m1010.5 658.5h-774.9l1.3-6.2 6.5-33.1 1.4-7.2q0.2-1.1 0.4-2c2.6-9.3 9.8-16.8 19.1-19.6l201.6-60 47.7-104c4.2-9.2 13.4-15.1 23.6-15.1h311.7l53.9 112 92.1 37z"/>
				</g>
				<path id="&lt;Path&gt;" class="s5" d="m689.5 668.8v57.9c0 5.7-4.6 10.4-10.3 10.4h-465.5c-4.7 0-8.6-3.1-9.9-7.4q-0.4-1.4-0.4-3v-57.9c0-5.7 4.6-10.3 10.3-10.3h465.5c5.7 0 10.3 4.6 10.3 10.3z"/>
				<path id="&lt;Path&gt;" class="s6" d="m1264.1 674.2v47.2c0 8.6-8.6 15.7-19.3 15.7h-454.4c10.6 0 19.3-7.1 19.3-15.7v-47.2c0-8.7-8.7-15.7-19.3-15.7h454.4c10.7 0 19.3 7 19.3 15.7z"/>
				<g id="&lt;Group&gt;">
					<path id="&lt;Path&gt;" class="s7" d="m302.4 652.3l3.1-27c0.7-5.2 5.1-9.1 10.3-9.1h151c6.2 0 11 5.4 10.3 11.5l-2.9 24.6z"/>
				</g>
				<g id="&lt;Group&gt;">
					<path id="&lt;Path&gt;" class="s7" d="m564.4 590.4l201.6-60.1 47.7-103.9c4.2-9.2 13.4-15.1 23.5-15.1h206.8c17.7 0 33.8 10.1 41.5 26.1l41.3 85.9 86.7 34.8c3.4 1.4 5.8 4.4 6.4 8l14.6 92.4h-698.8l9.2-46.6c2-10.2 9.5-18.5 19.5-21.5z"/>
				</g>
				<g id="&lt;Group&gt;">
					<path id="&lt;Path&gt;" class="s3" d="m726.6 790.4c-51.2 0-92.7-41.5-92.7-92.6 0-51.2 41.5-92.6 92.7-92.6 51.1 0 92.6 41.4 92.6 92.6 0 51.1-41.5 92.6-92.6 92.6z"/>
					<g id="&lt;Group&gt;">
						<path id="&lt;Path&gt;" class="s8" d="m726.6 745.8c-26.5 0-48-21.5-48-48 0-26.5 21.5-48 48-48 26.4 0 47.9 21.5 47.9 48 0 26.5-21.5 48-47.9 48z"/>
					</g>
					<g id="&lt;Group&gt;">
						<path id="&lt;Path&gt;" class="s7" d="m726.6 719.3c-11.9 0-21.5-9.6-21.5-21.5 0-11.9 9.6-21.5 21.5-21.5 11.8 0 21.5 9.6 21.5 21.5 0 11.9-9.7 21.5-21.5 21.5z"/>
					</g>
				</g>
				<g id="&lt;Group&gt;">
					<path id="&lt;Path&gt;" class="s3" d="m1101.1 790.4c-51.2 0-92.6-41.5-92.6-92.6 0-51.2 41.4-92.6 92.6-92.6 51.1 0 92.6 41.4 92.6 92.6 0 51.1-41.5 92.6-92.6 92.6z"/>
					<g id="&lt;Group&gt;">
						<path id="&lt;Path&gt;" class="s8" d="m1101.1 745.8c-26.5 0-48-21.5-48-48 0-26.5 21.5-48 48-48 26.4 0 47.9 21.5 47.9 48 0 26.5-21.5 48-47.9 48z"/>
					</g>
					<g id="&lt;Group&gt;">
						<path id="&lt;Path&gt;" class="s7" d="m1101.1 719.3c-11.9 0-21.5-9.6-21.5-21.5 0-11.9 9.6-21.5 21.5-21.5 11.8 0 21.5 9.6 21.5 21.5 0 11.9-9.7 21.5-21.5 21.5z"/>
					</g>
				</g>
				<g id="&lt;Group&gt;">
					<path id="&lt;Path&gt;" class="s9" d="m791 436.5l-41.3 90.2c-1 2.2-3.2 3.6-5.6 3.6h-251.6c-3.4 0-5.9-2.6-6.1-5.7-0.1-1 0-2 0.5-3l26.6-58.2 14.7-32.1c1-2.2 3.2-3.6 5.6-3.6h251.5c4.6 0 7.5 4.7 5.7 8.8z"/>
				</g>
				<path id="&lt;Path&gt;" class="s6" d="m660.8 674.2v47.2c0 8.6-8.7 15.7-19.3 15.7h-115c10.6 0 19.3-7.1 19.3-15.7v-47.2c0-8.7-8.7-15.7-19.3-15.7h115c10.6 0 19.3 7 19.3 15.7z"/>
				<path id="&lt;Path&gt;" class="s6" d="m1027.9 674.2v47.2c0 8.6-8.7 15.7-19.3 15.7h-115c10.6 0 19.3-7.1 19.3-15.7v-47.2c0-8.7-8.7-15.7-19.3-15.7h115c10.6 0 19.3 7 19.3 15.7z"/>
				<g id="&lt;Group&gt;">
					<path id="&lt;Path&gt;" class="s0" d="m772.9 427.7l-102.7 102.6h-68.2l102.6-102.6z"/>
				</g>
				<g id="&lt;Group&gt;">
					<path id="&lt;Path&gt;" class="s0" d="m677.1 427.7l-102.1 102.6c-0.1-1-34.7 0-34.7 0l102.7-102.6z"/>
				</g>
				<g id="&lt;Group&gt;">
					<path id="&lt;Path&gt;" class="s10" d="m336.6 501.7l9.1 1.4c1.8 0.2 3.1 2.4 2.6 4.3l-4.2 19.5 12.9 4.3c1 0.3 1.8 1.5 1.8 2.7l0.2 19.2c0 2.6-2.9 3.1-3.9 0.6l-3.3-13.8-15.9-4.6-2.1-30.4c-0.2-2 1.1-3.5 2.8-3.2z"/>
					<path id="&lt;Path&gt;" class="s10" d="m374.8 513.4l5.1 3.4c1 0.7 1.1 2.1 0.2 2.9l-8.4 8 6.4 5.9c0.5 0.5 0.6 1.3 0.2 1.9l-5.7 9.2c-0.7 1.3-2.7 0.6-2.5-0.8l2.2-7.7-8.1-7 8-15.1c0.5-1 1.7-1.3 2.6-0.7z"/>
					<path id="&lt;Path&gt;" class="s10" d="m316.8 545.5l15.1-0.2 2.2 9.3 7 1.3c1.2 0.5 0.9 2.2-0.4 2.4l-9.6 0.7c-0.6 0.1-1.1-0.3-1.3-0.9l-2.1-7.5-9.7 3.5c-1 0.3-2.1-0.3-2.2-1.4l-0.6-5.3c-0.2-1 0.6-1.9 1.6-1.9z"/>
				</g>
				<g id="&lt;Group&gt;">
					<path id="&lt;Path&gt;" class="s10" d="m1215.3 491.3l4.8 7.9c0.9 1.6 0.1 3.9-1.7 4.8l-17.7 9.1 4.9 12.7c0.4 1.1 0 2.4-0.9 3.2l-14.7 12.4c-1.9 1.6-4.2-0.3-3-2.6l8.6-11.4-6.6-15.2 22.1-21.1c1.4-1.3 3.4-1.2 4.2 0.2z"/>
					<path id="&lt;Path&gt;" class="s10" d="m1230.7 528.2l0.6 6.1c0.1 1.2-0.9 2.2-2.1 2l-11.5-1.4-0.5 8.7c-0.1 0.7-0.6 1.3-1.3 1.4l-10.7 1.5c-1.5 0.2-2.2-1.7-1-2.5l7.3-3.1 0.2-10.8 16.8-3.5c1-0.2 2.1 0.5 2.2 1.6z"/>
					<path id="&lt;Path&gt;" class="s10" d="m1168.9 504l9.8 11.6-5.7 7.6 3.4 6.1c0.4 1.3-1.1 2.2-2 1.3l-6.7-6.9c-0.5-0.5-0.5-1.1-0.2-1.7l4.4-6.3-8.8-5.3c-0.9-0.5-1.1-1.8-0.4-2.5l3.8-4c0.6-0.7 1.8-0.6 2.4 0.1z"/>
				</g>
				<g id="&lt;Group&gt;">
					<path id="&lt;Path&gt;" class="s4" d="m960.7 426.4v103.9h-179.6l42-91.5c3.4-7.6 11-12.4 19.3-12.4z"/>
				</g>
				<g id="&lt;Group&gt;">
					<path id="&lt;Path&gt;" class="s4" d="m1115.7 530.3h-138.1v-103.9h73.2c6.1 0 11.8 2.6 15.7 7q2 2.1 3.3 4.8z"/>
				</g>
				<g id="&lt;Group&gt;">
					<path id="&lt;Path&gt;" class="s11" d="m905.3 530.3l55.4-55.3v55.3z"/>
				</g>
				<g id="&lt;Group&gt;">
					<path id="&lt;Path&gt;" class="s11" d="m1066.5 433.4l-88.9 89v-64.3l31.7-31.7h41.5c6.1 0 11.8 2.6 15.7 7z"/>
				</g>
				<g id="&lt;Group&gt;">
					<path id="&lt;Path&gt;" class="s11" d="m960.7 426.4v16.3l-87.6 87.6h-40l104-103.9z"/>
				</g>
				<g id="&lt;Group&gt;">
					<path id="&lt;Path&gt;" class="s9" d="m580 622.4v23.7c0 3.4-2.8 6.2-6.2 6.2h-87.5l4.1-12.9c2.4-7.7 8.9-13.5 16.9-15.1l39.2-7.5v-0.1l3-0.5h24.3c3.4 0 6.2 2.8 6.2 6.2z"/>
				</g>
				<g id="&lt;Group&gt;">
					<path id="&lt;Path&gt;" class="s9" d="m290.9 652.3h-54l6.5-33.1 26.5 5.1c8 1.6 14.5 7.4 17 15.1z"/>
				</g>
				<g id="&lt;Group&gt;">
					<path id="&lt;Path&gt;" class="s8" d="m580 622.4v23.7c0 3.4-2.8 6.2-6.2 6.2h-32.7l7.2-31c0.7-3 3.3-5.1 6.4-5.1h19.1c3.4 0 6.2 2.8 6.2 6.2z"/>
				</g>
				<path id="&lt;Path&gt;" class="s6" d="m526.5 733.4c0 2-1.7 3.7-3.7 3.7h-309.1c-4.7 0-8.6-3.1-9.9-7.4h222.7l4.1-29.8 5 22.1c1 4.5 5 7.7 9.6 7.7h77.6c2 0 3.7 1.7 3.7 3.7z"/>
				<g id="&lt;Group&gt;">
					<path id="&lt;Path&gt;" class="s9" d="m430.6 698.8v49.6c0 0.5-0.4 1-1 1h-120.4c-0.6 0-1-0.5-1-1v-49.6c0-0.6 0.4-1 1-1h120.4c0.6 0 1 0.4 1 1z"/>
				</g>
			</g>
			<g id="&lt;Group&gt;">
				<g id="&lt;Group&gt;">
					<path id="&lt;Path&gt;" class="s12" d="m420.3 344.5l99.4-44.8h12.7l112.1 44.8c-10.1 103.4-44.5 178.9-112.1 216.5-1.4-0.8-11.3 0.8-12.7 0-64.8-38.3-89.5-115.3-99.4-216.5z"/>
				</g>
				<g id="&lt;Group&gt;">
					<path id="&lt;Path&gt;" class="s9" d="m407.6 344.5l112.1-44.8 112.2 44.8c-10.2 103.4-44.6 178.9-112.2 216.5-67.5-37.6-102-113.1-112.1-216.5z"/>
				</g>
				<path id="&lt;Path&gt;" class="s13" d="m433.7 345.9l86-34.4 100.4 40.1c-5.4 48-16.3 88.6-32.5 120.9q-6.7 13.3-14.7 24.9c-14.6 21.3-32.4 38.3-53.2 50.9-28.4-17.2-51.1-42.6-67.8-75.8-16.2-32.3-27.1-72.9-32.5-120.9z"/>
				<g id="&lt;Group&gt;">
					<path id="&lt;Path&gt;" class="s14" d="m433.7 345.9l139.2 151.5c-14.6 21.3-32.4 38.3-53.2 50.9-28.4-17.2-51.1-42.6-67.8-75.8-16.2-32.3-27.1-72.9-32.5-120.9z"/>
				</g>
				<path id="&lt;Compound Path&gt;" fill-rule="evenodd" class="s2" d="m567.7 421.1h-4.4l0.9 2.5v35.3c0 2.2-1.7 3.9-3.9 3.9h-12.6c-2.1 0-3.9-1.7-3.9-3.9v-7h-48.2v7c0 2.2-1.7 3.9-3.8 3.9h-12.7c-2.1 0-3.8-1.7-3.8-3.9v-35.3l0.9-2.5h-4.4c-1.1 0-1.9-1-1.7-2.1l1.1-4.9c0.4-2.1 2.3-3.6 4.4-3.6h4.4l6.6-18.3c2.8-7.7 10.1-12.9 18.2-12.9h29.8c8.2 0 15.5 5.2 18.3 12.9l6.6 18.3h4.3c2.2 0 4.1 1.5 4.5 3.6l1.1 4.9c0.2 1.1-0.6 2.1-1.7 2.1zm-68.1 10.3c-4.1-2.4-9.5-5-15.1-6.3-2.1-0.5-4.1 1.2-4.1 3.3v3.6c0 2.3 1.9 4.2 4.2 4.2h13.8c2.6 0 3.6-3.5 1.2-4.8zm20.8-15.9c7.2-0.1 22.2-0.6 31.1-3.9l-5-13.9c-2.3-6.3-8.2-10.4-14.8-10.4h-23.9c-6.6 0-12.5 4.1-14.8 10.4l-5 13.9c8.9 3.3 23.9 3.8 31.1 3.9zm38.6 12.9c0-2.1-2-3.8-4.1-3.3-5.5 1.3-10.9 3.9-15.1 6.3-2.3 1.3-1.4 4.8 1.3 4.8h13.7c2.4 0 4.2-1.9 4.2-4.2z"/>
				<path id="&lt;Compound Path&gt;" fill-rule="evenodd" class="s10" d="m532.8 431l3.9 1.6q0.1 2-0.2 3.9l-4 1.2q-0.5 1.8-1.6 3.4l1.7 3.8q-1.3 1.5-2.9 2.7l-3.7-2q-0.8 0.5-1.7 0.8-0.9 0.3-1.8 0.5l-1.6 3.8q-2 0.2-3.9-0.1l-1.2-4q-1.8-0.6-3.4-1.6l-3.8 1.6q-1.5-1.3-2.7-2.9l2-3.7q-0.4-0.8-0.8-1.7-0.3-0.9-0.5-1.8l-3.8-1.5q-0.2-2 0.2-4l3.9-1.2q0.6-1.8 1.6-3.3l-1.6-3.9q1.3-1.4 2.9-2.6l3.7 2q0.8-0.5 1.7-0.8 0.9-0.3 1.8-0.5l1.6-3.9q2-0.1 3.9 0.2l1.2 4q1.8 0.6 3.4 1.6l3.8-1.6q1.5 1.3 2.6 2.9l-1.9 3.6q0.4 0.9 0.7 1.8 0.3 0.8 0.5 1.7zm-5.3 0c-1.6-4.3-6.3-6.5-10.6-4.9-4.2 1.5-6.4 6.2-4.9 10.5 1.6 4.2 6.3 6.5 10.5 4.9 4.3-1.5 6.5-6.2 5-10.5z"/>
			</g>
			<g id="&lt;Group&gt;">
				<path id="&lt;Path&gt;" class="s15" d="m854.7 425.6c-3.7-1-6.8-3.2-8.9-6.2-2.1-3-3.1-6.6-2.7-10.5l1.6-16.3 0.5-5.5 6 1.5h26.4l-2.2 14.3-0.4 9c-0.8 9.5-11 16-20.3 13.7z"/>
				<path id="&lt;Path&gt;" class="s16" d="m857.9 309.7c0.6-3.6 2.9-6.7 6.3-8.3l4.2-2 5.3 43.7 5.7 47.6h-35.4z"/>
				<path id="&lt;Path&gt;" class="s17" d="m873.4 482.9l33.1-3.9 4.9 7.8 19.8 31.4-9.1 39.3-18.4 80-8.5 130h-25.8l-3.8-133.7z"/>
				<g id="&lt;Group&gt;">
					<path id="&lt;Path&gt;" class="s18" d="m898.5 636.7l20.1-95.9 2.1-9.8 1.4 0.2-2.6 12.1-19.6 93.6-7.9 130.6h-1.4z"/>
				</g>
				<path id="&lt;Path&gt;" class="s17" d="m911.4 486.8l56.2-27 11.3 43.7-2.4 8.9 2.4 120.7 17.2 131h-28.5l-30.9-125.2-14.6-81.4-2.6-14.2-0.3-1.8-0.6-0.6v-0.1l-7-7-5.1-44.7z"/>
				<path id="&lt;Path&gt;" class="s3" d="m996.1 764.2l5.6 19.6c0.9 3.3-1.6 6.6-5 6.6h-62l1.5-4.6c0.8-2.1 2.7-3.6 4.9-3.8 4.8-0.4 9.3-2.3 12.9-5.5l13.9-12.3z"/>
				<path id="&lt;Path&gt;" class="s3" d="m895.2 767.5l3.8 15.5c0.9 3.7-1.9 7.4-5.8 7.4h-58.2l0.9-3.7c0.6-2.4 2.3-4.5 4.5-5.6l29-13.6z"/>
				<g id="&lt;Group&gt;">
					<path id="&lt;Path&gt;" class="s18" d="m963.7 494.7l10.6 139.6 17.3 129.8h-1.4l-17.3-129.7-10.6-139.6z"/>
				</g>
				<g id="&lt;Group&gt;">
					<path id="&lt;Path&gt;" class="s18" d="m964.7 525l-5-1.8c-5.7-2.1-9.9-6.8-11.4-12.6l-0.3-1.4-3.7-14.3 1.4-0.4 3 12 1 3.8c1.4 5.3 5.3 9.6 10.5 11.5l4.5 1.6z"/>
					<path id="&lt;Path&gt;" class="s18" d="m965.5 523.7l-0.5 1.4-0.3-0.1v-1.6z"/>
				</g>
				<path id="&lt;Path&gt;" class="s19" d="m870.7 340.2q1.5 1.1 3 2.9l5.7 47.6h-10.8z"/>
				<path id="&lt;Path&gt;" class="s16" d="m978.9 496.6c-42.9 17.7-110.5 11.6-110.5 11.6 5.2-38.6 8.2-137.7 8.2-137.7l-8.2-32.6v-38.5l33.3-13.2 28.1-3.4 37.8 11.3 6 37.1c0 0-3.1 12.5-4.9 36.1-0.5 6.8-0.9 14.7-1.1 23.4-0.3 13.6 1 30.6 2.8 47 3.4 30.5 8.5 58.9 8.5 58.9z"/>
				<path id="&lt;Path&gt;" class="s15" d="m804.1 337.9l53 50.8 17.9 23.2-3.7 7.5c-3.8 7.7-13.5 10.2-20.6 5.5l-3.6-2.4c-5.2-3.4-9.7-7.9-13.1-13.2l-36.4-55.9-3.8-13.2z"/>
				<path id="&lt;Path&gt;" class="s17" d="m883.2 230.4c0 0-7.5 1.5-15.7-1.5-3.2-1.1-4.1-5.1-1.9-7.6 3.9-4.3 9.8-11 14.3-16.6 7.3-9.2 33-17.4 43.1-4.1 0 0 24.8 3.9 19.8 30.2-5.1 26.3-19.3 38.7-19.3 38.7z"/>
				<path id="&lt;Path&gt;" class="s15" d="m910.8 220l-1.5 8.1c4.2 1 10.1-5.4 10.1-5.4 0 0-3.1 17.7-1.2 21.4 1.9 3.8 2.9 0.7 3.9-1 1-1.7 6.9-4.4 8.9 2.3 2.1 6.7-6.8 11.8-6.8 11.8l5.6 25.6c0 0-5.7 14.1-17.6 13.8-10.8-0.3-10.5-10.4-10.5-10.4l0.1-11.6c-17.7-5.5-18.9-49.4-18.9-49.4 13.3 7.2 27.9-5.2 27.9-5.2z"/>
				<path id="&lt;Path&gt;" class="s20" d="m901.8 274.6c0 0 12.1 0.1 16.2-10.4 0 0-3.8 15.9-16.3 15.4z"/>
				<g id="&lt;Group&gt;">
					<path id="&lt;Path&gt;" class="s20" d="m897.6 262.8c0-0.8 0.6-1.5 1.4-1.5 6.3-0.2 8.4-4.7 8.5-4.9 0.4-0.7 1.2-1 1.9-0.7 0.7 0.3 1.1 1.1 0.8 1.8-0.2 0.3-2.9 6.4-11.1 6.7q-0.1 0-0.1 0c-0.7 0-1.4-0.6-1.4-1.4z"/>
				</g>
				<path id="&lt;Path&gt;" class="s20" d="m923.4 253l-1.1-3.3c0 0 1-3.9 3-4.4 1.9-0.4 2.9 3.9-1.9 7.7z"/>
				<path id="&lt;Path&gt;" class="s17" d="m824.2 341.3l-25.5 5c-0.5 0.1-1.1-0.2-1.2-0.8l-9.1-46c-0.1-0.5 0.3-1.1 0.8-1.2l25.5-5c0.5-0.1 1 0.2 1.1 0.8l9.1 46c0.2 0.5-0.2 1.1-0.7 1.2z"/>
				<path id="&lt;Path&gt;" class="s15" d="m793.1 323l5.3-6.5h8.2c1.6 0 3.1 1 3.6 2.5l5 14.5c0.5 1.1 0.1 2.4-0.9 3.2l-5.7 4-3.9 6.3 3 11-10.1-4.6-7.4-22.3z"/>
				<path id="&lt;Path&gt;" class="s15" d="m992.5 385.6l-1.9 33.7c-0.1 4.6-4.1 8.1-8.7 7.7l-9.5-0.9c-3.9-0.4-6.9-3.6-7.1-7.5l-0.1-31.5z"/>
				<path id="&lt;Path&gt;" class="s19" d="m970.4 437.7l-4.9 10.3-12.8-103 9.6-1.9 6.4 24.2c-0.5 6.8-0.9 14.7-1.1 23.4-0.3 13.6 1 30.6 2.8 47z"/>
				<path id="&lt;Path&gt;" class="s16" d="m967.6 294.1l2.6 0.9c3.4 1 6.5 3 8.9 5.6l20.2 88.7-35.3 2.8-11.3-47.1z"/>
				<path id="&lt;Path&gt;" class="s15" d="m989.3 427.9l-24.9 81.7 0.3 13.8-4.5-1.6c-5.2-1.9-9.1-6.2-10.5-11.5l-1-3.8 19.4-94.3 19.2-3.8 0.1 0.1c3.2 6 3.9 12.9 1.9 19.4z"/>
			</g>
			<g id="&lt;Group&gt;">
				<path id="&lt;Path&gt;" class="s0" d="m1342.1 795.6h-1178.2c-1.4 0-2.6-1.2-2.6-2.6 0-1.4 1.2-2.6 2.6-2.6h1178.2c1.5 0 2.7 1.2 2.7 2.6 0 1.4-1.2 2.6-2.7 2.6z"/>
			</g>
			<g id="&lt;Group&gt;">
				<path id="&lt;Path&gt;" class="s21" d="m797.3 287.1c-0.7 0-1.4-0.2-1.9-0.7l-13.1-12.4c-1.1-1.1-1.1-2.8-0.1-3.8 1-1.1 2.7-1.2 3.8-0.2l11 10.5 22.4-27.6c0.9-1.2 2.6-1.4 3.7-0.4 1.2 0.9 1.4 2.6 0.4 3.7l-24.1 29.9c-0.5 0.6-1.2 1-1.9 1q-0.1 0-0.2 0z"/>
			</g>
		</g>
	</g>
</svg>